<?xml version="1.0" encoding="UTF-8"?>
<!DOCTYPE svg PUBLIC "-//W3C//DTD SVG 1.1//EN" "http://www.w3.org/Graphics/SVG/1.1/DTD/svg11.dtd">
<!-- Creator: CorelDRAW -->
<svg xmlns="http://www.w3.org/2000/svg" xml:space="preserve" width="2000mm" height="2000mm" version="1.1" style="shape-rendering:geometricPrecision; text-rendering:geometricPrecision; image-rendering:optimizeQuality; fill-rule:evenodd; clip-rule:evenodd"
viewBox="0 0 200000 200000"
 xmlns:xlink="http://www.w3.org/1999/xlink"
 xmlns:xodm="http://www.corel.com/coreldraw/odm/2003">
 <defs>
  <style type="text/css">
   <![CDATA[
    .str0 {stroke:#2D1008;stroke-width:7.62;stroke-miterlimit:22.9256}
    .fil1 {fill:#1F1F1F}
    .fil0 {fill:#B17457}
    .fil5 {fill:#E2AD4A}
    .fil4 {fill:#F5B522}
    .fil2 {fill:#FDD281}
    .fil3 {fill:#FDE043}
   ]]>
  </style>
 </defs>
 <g id="Camada_x0020_1">
  <metadata id="CorelCorpID_0Corel-Layer"/>
  <circle class="fil0" cx="99991.74" cy="100008.26" r="90040.43"/>
  <g id="_2023718266864">
   <path class="fil1" d="M94316.88 12335.21c19362.7,-1146.22 36746.31,3582.21 52417.69,13108.25 8906.45,5413.93 14014.68,10319.81 20443.84,17975.59 3685.57,4388.83 7907.61,11340.25 10603.36,16722.73 14495.36,28942.6 13123.56,59115.37 -3046.29,86695.74 -1088.25,1856.05 -6550.84,9584.28 -8106.66,11102.91 -608.66,594.17 -746.19,665.53 -1257.23,1291.42 -2893.17,3543.11 -7410.79,7344.61 -11530.56,10465.54 -13094.86,9920.33 -29988.75,16783.16 -47625.28,17847.35 -13898.47,838.88 -26535.05,-934.59 -38282.99,-5517.28 -11978.16,-4672.65 -17815.9,-9216.52 -26707.85,-17044.83 -1798.9,-1583.71 -6401.83,-6680.72 -8004.95,-8670.47 -10979.05,-13625.04 -18795.6,-32470.41 -20465.72,-50636.84 -1742.57,-18951.46 3441.67,-37634.41 12602.14,-52896.48 2361.61,-3934.38 6202.22,-8926.68 9291.98,-12465.14 14486.34,-16589.84 37078.52,-26641.41 59668.52,-27978.49zm-1129.27 -3230.3c-6736.5,325.38 -13442.11,1571.13 -19518.82,3323.82 -11496.38,3315.61 -21028.17,8141.11 -30314.68,15057.53 -2890.43,2152.72 -5252.87,4135.91 -7523.16,6606.9 -2679.35,2916.14 -3800.14,3636.08 -6799.4,7546.68 -2550.28,3324.91 -4729.8,6266.75 -6991.34,10147.82 -2798.01,4801.71 -5185.33,9911.85 -7307.42,15601.12 -11388.11,30529.86 -5635.68,62733.12 13607.26,88254.02 2760.28,3660.96 4756.32,5952.3 7849.36,9284.05 8251.31,8888.4 19085.17,15997.87 30869.47,20521.77 11682.86,4485.35 25985.45,6372.57 39643.85,5326.15 13608.63,-1042.59 24788.65,-4678.66 35428.64,-9864.82 9753.81,-4754.13 17380.06,-10505.19 24554.6,-18055.7 17156.11,-18054.88 26178.22,-44398.8 24081.83,-69651.46 -1683.51,-20282.24 -9919.78,-37111.34 -20986.06,-52608.55 -4592.53,-6431.35 -14947.61,-14484.43 -21609.74,-18448.89 -16756.64,-9972.01 -34467.81,-14031.35 -54984.39,-13040.44z"/>
   <path class="fil1" d="M94318.71 15158.52c21253.24,-1079.51 40573.95,4787.05 56904.96,16965.74 4164.04,3105.52 8978.89,7519.47 12339.22,11647.81l3433.65 4419.4c21415.13,28942.49 23751.55,65661.46 5072.66,96759.97 -1386.1,2307.81 -2749.31,4394.05 -4191.83,6432.33 -2223.6,3142.03 -6754.2,8451.8 -9810.11,11175.77 -14550.56,12970.14 -31862.69,20335.08 -52222.57,21902.15 -20422.01,1571.97 -41458.32,-4466.55 -57079.38,-16889.44 -2056,-1634.93 -3865.07,-3273.13 -5727.29,-4887.89 -1843.96,-1598.95 -3401.22,-3495.78 -5175.41,-5435.13 -11998.83,-13114.3 -20546.29,-33683.49 -22140.88,-51981.38 -1166.72,-13389.56 994.74,-25168.18 5223.1,-36439.61 4010.6,-10691.21 8882.68,-18024.54 15799.58,-26433.83 2463.15,-2994.87 7999.39,-7843.51 11073.84,-10147.78 5285.24,-3961 7266.01,-4998.53 13106.13,-8126.94 8773.67,-4699.84 22011.97,-8383.13 33394.33,-8961.17zm-79780.05 88680.72c882.19,16452.56 7866.68,34703.85 17058.68,47219.4 790.89,1077.05 1526.73,2092.51 2370.77,3159.75 1894.38,2394.75 5392.89,6555.79 7484.85,8433.81 4291.04,3852.81 6519.27,6032.8 11891.18,9576.55 24826.15,16376.53 58455.4,17860.48 85043.21,4797.68 5358.28,-2632.67 15221.26,-8431.64 19449.07,-12852.94 856.57,-895.82 1846.96,-1627.85 2779.3,-2525.84l3822 -4258.06c538.8,-655.72 757.38,-767.19 1284.45,-1484.77 718.67,-978.12 1555.35,-1913.18 2346.24,-2954.8 11879.19,-15650.5 18685.98,-36619.22 17657.44,-57067.94 -1249.02,-24828.33 -14735.06,-47333.32 -26967.99,-58841.04 -3632.05,-3416.48 -7295.72,-6496.65 -12046.52,-9402.4 -4554.58,-2785.84 -8841.53,-5152.79 -14176.64,-7293.54 -28197.12,-11312.86 -59893.29,-7561.71 -84168.93,10139.6 -3673.47,2678.46 -8681.55,6875.48 -11360.82,10098.45 -1841.24,2214.61 -2498.32,2504.59 -4975.37,5856.75 -1458.87,1974.5 -2961.08,4041.67 -4316.93,6299.06 -9566.19,15928.21 -14242.05,31181.36 -13173.99,51100.28z"/>
  </g>
  <g id="_2023718266768">
   <path class="fil2" d="M143835.01 117597.65c1153.52,10.27 2507.5,936.34 3405.85,1688.12 1067.2,893.05 564.06,-655.19 801.43,1324.1 -2275.84,1084.49 -5597.1,-783.89 -4207.28,-3012.22zm-11979.67 -1694.15c-1367.31,2908.84 -5553.16,1338.17 -4185.77,-2540.36 1063.72,-3017.43 5733.09,-751.53 4185.77,2540.36zm29216.44 -2962.89c-728.02,1558.67 -2356.87,1711.29 -3367.7,1212.7 -1910.92,-942.63 -321.88,-2724.27 176.79,-3472.15 483.02,-724.54 1075.88,-2905.86 2668.32,-2100.54 1055.44,533.76 1043.27,3245.29 522.59,4359.99zm-45422.02 -1583.16c913.83,371.29 184.32,-52.23 984.51,630.68 3239.99,2764.99 4336.65,5407.49 10357.36,7424.35l4659.52 1205.33c488.82,243.5 314.02,149.15 604.12,411.69 -820.14,523.75 -2003.46,451.32 -3031.84,318.32 -5891.42,-761.87 -13151.98,-5787.55 -13573.67,-9990.37zm33230.79 2238.26c-124.31,-1179.18 106.28,-1629.51 572.09,-2361.09 720.98,-1132 804.91,-1357.87 2446.83,-973.58 -15.47,1853.89 -939.81,3813.48 -3018.92,3334.67zm-29861.19 -9099.05c1458.43,-100.81 1428.22,474.83 2067.85,1270.47 657.74,818.15 1835.02,1002.06 1113.21,1832.21 -1112.96,1280.07 -4093.65,-644.92 -3181.06,-3102.68zm22508.93 1180.34c-1587.05,2341.8 -5629.05,116.37 -4047.96,-947.19 850.19,-571.83 690.36,-101.64 1579.86,-206.17 1080.68,-126.88 581.1,-180.6 1357.13,-637.97 1835.93,-1082.01 1703.42,917.14 1110.97,1791.33zm7207.92 -7887.43c-908.12,1725.52 -5427.6,129.53 -3503.19,-2772.86 484.27,-730.42 1608.16,-1215.76 2631.49,-287.45 735.8,667.52 1525.06,1818.97 871.7,3060.31zm-35254.36 -10672.54c2453.37,-1941.21 5182.03,2235.7 2656.07,4495.32 -2510.49,2245.63 -5243.36,-2448.25 -2656.07,-4495.32zm-7459.94 -6886.45c1092.44,1524.82 1008.76,547.76 1450.32,1636.06 -1787.1,2052.7 -3736.01,-116.46 -3538.36,-2725.68 1337.09,-369.8 1531.93,313.35 2088.04,1089.62zm18900.13 -947.43c337.69,-696.48 792.99,-1091.36 1861.1,-809.13 371.79,923.85 53.55,1540.46 -918.05,2400.57 -1397.36,1237.04 -3250.67,143.52 -3505.43,-654.02 -485.51,-1520.43 1432.45,-869.96 2562.38,-937.42zm7951.25 -6242.6c-3074.54,853.24 -4105.07,-3594.81 -1574.31,-4076.02 2130.5,-404.98 3999.04,2942.94 1574.31,4076.02zm27917.82 24021.16c-1436.66,294.24 -2249.43,-171.07 -3082.73,-1061.65 -244.66,-261.46 -704.84,-857.87 -796.3,-1331.22 -270.07,-1398.34 283.4,-1441.88 384.62,-1519.76 -2264.67,-2999.31 -9914.72,-6389.52 -14967.39,-7171.33 -403.24,-62.41 -900,-117.78 -1287.35,-187.47l-1349.43 -416.48c947.26,-426.75 2312.01,-180.19 3559.14,-103.05 37.65,-1317.56 -120.76,-332.22 227.02,-1065.45 969.54,-2043.93 3848,-878.91 2769.13,1521.25l2446.1 745.23c1639.77,-4585.53 668.5,-9194.15 -1816.24,-13267.35l-1058.17 -1276.1c-2653.84,-237.79 -4488.37,-1771.13 -3887.98,-4317.53 -2582.82,-3305.21 -9775.34,-6209.5 -14826.35,-6974.93 -987.32,-149.64 -1939.72,-165.53 -2703.24,-802.01l-297.72 -31.12c-1180.09,1355.55 -6182.18,1602.36 -8083.09,2162.7 -2637.03,777.34 -4935.05,1726.93 -7133.01,3085.63 -9408.52,5816.1 -14806.57,19706.61 -8286.12,26148.93 2928.21,2893.03 8422.6,6103.23 13994.55,6427.18l990.06 -1505.37c-3607.73,-229.26 -6775.88,-1333.87 -9227.68,-3076.11 -2000.06,-1421.27 -5275.64,-4365.45 -5658.35,-6938.17 3104.83,1079.19 4127.17,7200.71 15647.56,9010.16 2410.5,-2754.07 4986.95,-5345.33 9066.94,-7103.13 3077.27,-1325.85 9922.92,-3374.32 13662.32,-2593.42 -1482.18,949.34 -8032.1,829.49 -14037.75,4272.26 -8099.81,4643.3 -14945.28,15430.22 -11608.04,23455.12 1772.61,4262.49 5473.45,6650.9 10293.46,8366.82 9285.03,3305.62 22534.92,3136.03 31199.12,-760.55 9227.26,-4149.76 12764.38,-14221.16 5866.92,-23693.08z"/>
   <path class="fil1" d="M31592.76 111727.83c-1475.73,1155.34 -758.14,526.98 -2522.65,1204.84 -1942.78,746.39 -5151.98,2583.15 -6280.01,4131.8 -2030.11,2787.01 468.05,5125.33 2438.14,6604.46 693.01,520.36 1550.23,736.38 2356.54,1147.89 4119.88,2102.7 7767.75,2775.67 11844.1,3886.24l12969.31 2496.33c1179.43,119.93 1601.21,392.31 2926.06,491.38 2520.08,188.55 4248.75,368.15 6453.33,655.85 6824.62,890.65 19159.27,1690.43 25960.47,1781.55 25733.12,344.65 40556.82,282.49 65505.47,-3946.32 1088.14,-184.4 2182.32,-178.19 3208.3,-399.51l13598.92 -3868.28c4195.86,-1660.71 11830.85,-5617.55 5448.29,-10315.64 -4381.26,-3224.93 -3906.51,-2076.37 -6988.59,-3499.96 -866.48,-400.26 -1286.52,-590.79 -2616.83,-664.04l-78.88 -539.89c-680.59,764.36 -959.1,2363.91 -1419.37,3294.37 -5749.23,11622.28 -25490.69,12795.34 -36516.06,10203.16 -7906.3,-1858.86 -7410.53,-2426.39 -12406.91,-5561.93 -8040.22,3148.62 -16470.35,4134.29 -25517.43,2564.2 -3634.87,-630.85 -8484.84,-1969.6 -11059.88,-3502.85 -1916.71,-1141.19 -4812.06,-3373.83 -5914.43,-5177.73 -382.72,-626.38 -800.61,-1626.12 -1299.2,-2341.64 -7403.07,2007.34 -30088.55,7651.71 -38120.08,5260.74 -2556.5,-761.04 -2140.68,-1399.59 -1968.61,-3905.02z"/>
   <path class="fil2" d="M103309.89 114417.09c1217.66,-415.82 1955.61,158.83 2829.96,781.9l862.43 591.78c558.84,339.18 1687.62,370.38 681.58,1454.54 -976.81,1052.63 -4808.91,-154.52 -4373.97,-2828.22zm-16074.31 -2739.91c-456.46,-4142.32 4406.34,-3868.94 4705.79,-871.79 125.8,1258.39 -920.37,2924.57 -1939.31,3147.63 -1598.07,349.69 -2634.97,-1082.51 -2766.48,-2275.84zm-11706.96 -3710.77c1467.95,714.53 3774.17,3842.28 7002.82,5997.53 4353.87,2906.52 7845.63,2302.74 9567.76,3558.48 -57.44,54.13 -158.33,38.07 -195.82,133.09 -37.75,95.68 -150.64,101.55 -205.1,121.33l-2508.08 136.73c-6217.86,-720.15 -13571.2,-6023.35 -13661.58,-9947.16zm6718.76 -3753.72c-2566.51,995.76 -4191.89,-1612.39 -3390.12,-2899.41 611.81,-982.19 1519.51,158.66 1902.47,696.24l787.45 931.62c883.37,907.12 511.41,-502.98 700.2,1271.55zm14991.89 -2837.33l730.83 -245.66c88.07,-12 171.58,-21.76 270.9,-30.21 220.57,-18.7 680.67,53.8 1174.71,30.79 722.47,-742.91 769.07,-1290 2225.18,-714.85 554.87,3667.39 -5256.35,3556.98 -4401.62,959.93zm13897.46 8701.44l-300.53 -449.43c-724.21,492.14 -794.89,637.31 -2159.96,649.31 68.28,-1941.21 428.32,-2422.34 1541.2,-3608.22l973.42 -10.84c571.34,-2900.65 1286.94,-5059.7 2382.2,-7255.34 -2796.03,-1618.18 -17306.88,-2251.01 -17480.94,-16561.23 -6212.89,103.79 -13491.4,3949.47 -17560.8,8517.53 -4309.25,4837.23 -8171.9,12994.15 -4792.53,19437.63 4345.59,8285.7 19952.02,10400.14 29513.08,9379.8 4620.29,-493.13 6996.28,-1559 10864.8,-2482.43l-397.03 -701.86c-38.16,-59.93 -90.22,-139.13 -132.1,-202.86 -61.41,-93.53 -358.22,-491.56 -498.17,-706.42 -306.24,-470.03 -602.22,-1027.8 -916.65,-1708.31 -608.91,-1317.98 -861.1,-2599.62 -1035.99,-4297.33z"/>
   <path class="fil1" d="M111190.86 106657.62l-54.13 3419.18c174.89,1697.71 427.08,2979.35 1035.99,4297.33 314.43,680.51 610.41,1238.28 916.65,1708.31 139.95,214.86 436.76,612.89 498.17,706.42 41.88,63.73 93.94,142.93 132.1,202.86l397.03 701.86c-3868.52,923.43 -6244.51,1989.3 -10864.8,2482.43 -9561.06,1020.34 -25167.49,-1094.1 -29513.08,-9379.8 -3379.37,-6443.48 483.28,-14600.4 4792.53,-19437.63 4069.4,-4568.06 11347.91,-8413.74 17560.8,-8517.53 174.06,14310.22 14684.91,14943.05 17480.94,16561.23 -1095.26,2195.64 -1810.86,4354.69 -2382.2,7255.34zm-30929.47 -19320.76c-2627.84,-7256.41 8749.12,-9765.9 8555.45,-4096.87 -1824.6,669.08 -2833.61,1027.3 -4545.56,1868.79 -1627.94,800.19 -3379.45,2141.76 -4009.89,2228.08zm13744.84 -5221.01l-4224.5 839.42c-1076.55,-1587.97 -288.85,-2371.69 -2812.66,-3550.2 -1773.28,-828.08 -3542.75,-506.29 -5007.07,470.11 -3105.41,2070.66 -4098.61,4537.69 -2710.11,8761.04 -5733.84,4282.1 -6705.6,10336.58 -8371.2,14749.79l149.56 4721.85c-8525.15,4346.99 -9452.14,2223.94 -18254.56,4205.3 -7558.02,1701.19 -11583.55,2856.86 -19447.8,1494.27l213.21 -2819.7c261.21,-5001.52 -19.04,-7194.51 -1256.41,-11580.49l-1967.78 -10723.27c7471.94,-465.81 10041.77,-1459.67 16296.87,-3840.05 4750.65,-1807.95 7646.67,-749.95 16186.46,-3967.84 9233.06,-3479.1 19186.02,-2517.85 25688.43,-4674.17 2320.28,-769.48 4627.57,-2246.71 6738.95,-3214l2660.21 -1105.44c-16.63,2345.04 175.47,3402.22 -612.64,5518.9 -815.42,2190.25 -750.45,3657.79 -1362.75,4528.17l-175.55 -1164.36c1.07,-165.37 83.84,-816.5 103.21,-1005.04 112.06,-1090.29 195.41,-1363.83 -62.08,-2445.84 -1104.93,2191.25 -36.17,4721.84 -1771.79,4801.55zm-45618.09 -7650.39c3137.52,-3100.78 7989.56,-3234.94 16700.69,-10302.56 2914.72,-2364.82 2582.74,-3572.3 5167.21,-3099.21 7850.19,1437.08 21094.21,5392.18 26215.82,9404.8l-7060.18 3412.22c-8799.19,3013.87 -17396.92,2158.07 -26026.69,4946.15 -2555.18,825.52 -5474.94,1809.7 -8154.93,2316.97 -2961.4,560.58 -5940.18,589.63 -8692.5,1545.01 -4792.29,1663.45 -10548.72,4354.78 -16343.72,3598.45l16964.72 -10729.47c913.82,1278.66 706.58,1671.56 2169.64,2395.68 4987.2,2468.28 8982.11,-1386.18 6588.58,-4925.37l-279.59 964.15c-41.47,263.78 -31.45,549.16 -61.08,842.82 -465.24,4615.66 -6895.06,2997.4 -7187.97,-369.64zm-16795.38 37262.37c-172.07,2505.43 -587.89,3143.98 1968.61,3905.02 8031.53,2390.97 30717.01,-3253.4 38120.08,-5260.74 498.59,715.52 916.48,1715.26 1299.2,2341.64 1102.37,1803.9 3997.72,4036.54 5914.43,5177.73 2575.04,1533.25 7425.01,2872 11059.88,3502.85 9047.08,1570.09 17477.21,584.42 25517.43,-2564.2 4996.38,3135.54 4500.61,3703.07 12406.91,5561.93 11025.37,2592.18 30766.83,1419.12 36516.06,-10203.16 460.27,-930.46 738.78,-2530.01 1419.37,-3294.37 -267.67,-4920.9 1324.93,-8318.23 -4196.03,-15312.44 -2620.07,-3319.28 -6515.07,-6515.9 -11340.79,-8412.83 560.16,-3765.31 1692.74,-6718.76 -466.81,-11610.37 -4201.82,-9517.77 -14081.53,-15645.99 -25409.16,-15725.03 763.52,636.48 1715.92,652.37 2703.24,802.01 5051.01,765.43 12243.53,3669.72 14826.35,6974.93 1485.75,986.08 2907.35,2518.42 3887.98,4317.53l1058.17 1276.1c2484.74,4073.2 3456.01,8681.82 1816.24,13267.35l-2446.1 -745.23 -2996.15 -455.8c-1247.13,-77.14 -2611.88,-323.7 -3559.14,103.05l1349.43 416.48c387.35,69.69 884.11,125.06 1287.35,187.47 5052.67,781.81 12702.72,4172.02 14967.39,7171.33 1327.58,1318.47 2565.03,2304.81 3494.41,3912.63 6897.46,9471.92 3360.34,19543.32 -5866.92,23693.08 -8664.2,3896.58 -21914.09,4066.17 -31199.12,760.55 -4820.01,-1715.92 -8520.85,-4104.33 -10293.46,-8366.82 -3337.24,-8024.9 3508.23,-18811.82 11608.04,-23455.12 6005.65,-3442.77 12555.57,-3322.92 14037.75,-4272.26 -3739.4,-780.9 -10585.05,1267.57 -13662.32,2593.42 -4079.99,1757.8 -6656.44,4349.06 -9066.94,7103.13 -11520.39,-1809.45 -12542.73,-7930.97 -15647.56,-9010.16 382.71,2572.72 3658.29,5516.9 5658.35,6938.17 2451.8,1742.24 5619.95,2846.85 9227.68,3076.11l-990.06 1505.37c-5571.95,-323.95 -11066.34,-3534.15 -13994.55,-6427.18 -6520.45,-6442.32 -1122.4,-20332.83 8286.12,-26148.93 2197.96,-1358.7 4495.98,-2308.29 7133.01,-3085.63 1900.91,-560.34 6903,-807.15 8083.09,-2162.7 -6795.32,719.74 -9757.3,968.21 -15403.32,3869.35 -6419.31,3298.59 -8456.37,8426.16 -9577.11,9346.94 -682.66,-2186.29 -504.22,-2540.78 -2078.69,-3692.31 -1120.75,-819.64 -2035.82,-1474.74 -3370.93,-2183.06 -5325.3,-2825.25 -21304.51,-8471.02 -26126.34,-7795.56l-2889.47 3218.14c-2661.2,2547.4 -7240.77,6264.29 -10847.09,7229.52 -4384.24,1173.38 -4209.85,2165.92 -7485.35,4510.46 -2443.85,1749.27 -4739.56,3060.05 -7293.16,4675.5 -12141.57,7680.67 -12279.04,5806.92 -10365.55,12021.05 959.26,3115.01 1201.36,6570.28 2300.25,9696.46 1005.04,2859.02 1066.7,7880.4 625.3,11028.6z"/>
   <path class="fil3" d="M42905.25 103493.94c-643.26,-5959.05 6404.83,-8091.45 7475.33,-2298.35 1169.67,6329.75 -6898.28,7644.09 -7475.33,2298.35zm-8351.67 -12372.15c3831.53,-2491.45 6192.28,4934.31 2418.53,6867.08 -2236.11,1145.24 -3811.66,37.24 -4194.79,-2103.69 -402.41,-2248.77 271.4,-3784.84 1776.26,-4763.39zm15156.43 -5614.74c3028.52,-939.15 5047.62,1997.83 5488.43,4482.98 511,2880.29 -624.47,5878.27 -3168.73,6412.2 -6547.76,1373.93 -7802.18,-9195.15 -2319.7,-10895.18zm18433.16 -5230.61c6055.89,-2215.67 7754.51,11719.86 2294.05,12953.42 -3539.69,799.61 -5641.96,-2115.85 -5864.36,-5211.5 -214.12,-2981.51 651.21,-6673.9 3570.31,-7741.92zm-34602.07 30711.29l698.96 400.18c3750.41,-114.8 9612.87,406.55 12416.6,-766.92 173.64,-72.67 8232.81,-1132.58 10785.18,-2521.91 -220.74,-1460.17 8.77,-3189 771.47,-4239.56 293.98,1750.43 -149.4,2714.75 450.66,4412.22l982.36 -672.9c-2713.67,-9964.79 9630.58,-14404.82 10746.78,-5262.31 519.69,421.78 256.82,-646.25 487.58,1049.48 1665.6,-4413.21 2637.36,-10467.69 8371.2,-14749.79 -1388.5,-4223.35 -395.3,-6690.38 2710.11,-8761.04 1464.32,-976.4 3233.79,-1298.19 5007.07,-470.11 2523.81,1178.51 1736.11,1962.23 2812.66,3550.2l4224.5 -839.42c375.43,-2170.89 1303.25,-7492.47 1972.09,-8724.79 -365.75,-440.73 667.02,-287.53 -750.7,-403.15 -2111.38,967.29 -4418.67,2444.52 -6738.95,3214 -6502.41,2156.32 -16455.37,1195.07 -25688.43,4674.17 -8539.79,3217.89 -11435.81,2159.89 -16186.46,3967.84 -6255.1,2380.38 -8824.93,3374.24 -16296.87,3840.05l1967.78 10723.27c1237.37,4385.98 1517.62,6578.97 1256.41,11580.49z"/>
   <path class="fil3" d="M37800.52 83745.77c456.13,-1272.2 1265.59,-1343.8 2769.3,-2057.08 1239.68,-587.98 1997.16,-956.95 3574.86,-923.85 -927.07,1148.06 -4711.83,2486.07 -6344.16,2980.93zm47824.66 -14738.62c20.2,-8.19 16.64,-586.56 1715.84,93.53 2903.13,1162.05 484.02,5060.94 -3600.52,5068.48 1005.7,-801.93 2179.75,-1134.24 2935.32,-2131.5 1711.29,-2258.87 -1009.01,-3005.26 -1050.64,-3030.51zm-4223.51 318.08c-226.45,-256 -693.67,386.1 -327.67,-1377.41 48.34,-232.57 321.8,-913.58 387.43,-1107.5 144.1,181.42 616.2,277.76 385.53,1505.61 -87.57,466.14 -283.31,684.15 -445.29,979.3zm7756.83 2970.25c922.93,-2269.22 1451.07,-2716.32 -522.43,-3933.74l-417.31 -303.76c4582.64,369.64 3142.74,3441.86 939.74,4237.5zm-7089.23 -1770.8c361.11,-1503.62 1134.4,-3240.07 2516.11,-3889.04 -128.2,928.64 -305.74,1799.26 -658.16,2627.18 -483.61,1135.81 -475.41,1042.61 -1857.95,1261.86zm-11415.2 -6252.37c5293.77,-1763.84 7708.16,3076.69 3266.81,5243.36 -3767.55,1837.92 -9424.58,-3191.65 -3266.81,-5243.36zm-7143.69 3217.23c763.36,-704.59 1693.91,-1389.07 2147.22,-2165.51l1184.15 -2022.41c268.66,-328.58 228.93,-235.88 512.41,-480.38 20.61,3145.97 -1009.43,4032.4 -3843.78,4668.3zm-15122.24 6975.92c292.91,3367.04 6722.73,4985.3 7187.97,369.64 29.63,-293.66 19.61,-579.04 61.08,-842.82l279.59 -964.15c2393.53,3539.19 -1601.38,7393.65 -6588.58,4925.37 -1463.06,-724.12 -1255.82,-1117.02 -2169.64,-2395.68l-16964.72 10729.47c5795,756.33 11551.43,-1935 16343.72,-3598.45 2752.32,-955.38 5731.1,-984.43 8692.5,-1545.01 2679.99,-507.27 5599.75,-1491.45 8154.93,-2316.97 8629.77,-2788.08 17227.5,-1932.28 26026.69,-4946.15l7060.18 -3412.22c-5121.61,-4012.62 -18365.63,-7967.72 -26215.82,-9404.8 -2584.47,-473.09 -2252.49,734.39 -5167.21,3099.21 -8711.13,7067.62 -13563.17,7201.78 -16700.69,10302.56z"/>
   <path class="fil3" d="M59646.33 107598.84l-982.36 672.9 1284.63 1237.86c29.29,-54.88 110.99,128.04 166.69,191.85 -1868.3,-42.13 -2133.48,-53.14 -2673.45,-1602.37 -2552.37,1389.33 -10611.54,2449.24 -10785.18,2521.91 -2803.73,1173.47 -8666.19,652.12 -12416.6,766.92l-698.96 -400.18 -213.21 2819.7c7864.25,1362.59 11889.78,206.92 19447.8,-1494.27 8802.42,-1981.36 9729.41,141.69 18254.56,-4205.3l-149.56 -4721.85c-230.76,-1695.73 32.11,-627.7 -487.58,-1049.48 87.98,3119.89 -1024.08,5440.43 -3329.55,6490.82 -1431.86,652.37 -2779.47,782.56 -4388.96,485.1 -1958.01,-361.94 -1717.66,-657.42 -3028.27,-1713.61z"/>
   <path class="fil4" d="M65933.88 98568.07c-81.28,225.46 -96.43,201.7 20.28,656.26 310.04,1207.73 1462.32,4764.14 -907.46,5715.05l365 -6398.87c-3875.72,927.07 -7470.28,9813.41 -1645.57,9527.78 5625.99,-275.77 6603.06,-8453.96 2167.75,-9500.22z"/>
   <path class="fil1" d="M65411.7 98540.51l522.18 27.56c4435.31,1046.26 3458.24,9224.45 -2167.75,9500.22 -5824.71,285.63 -2230.15,-8600.71 1645.57,-9527.78zm-5765.37 9058.33c1310.61,1056.19 1070.26,1351.67 3028.27,1713.61 1609.49,297.46 2957.1,167.27 4388.96,-485.1 2305.47,-1050.39 3417.53,-3370.93 3329.55,-6490.82 -1116.2,-9142.51 -13460.45,-4702.48 -10746.78,5262.31z"/>
   <path class="fil1 str0" d="M68119.75 81359.52c4898.14,79.87 5580.06,10369.28 1786.03,10679.9 -2073.4,169.76 -3744.29,-2593 -3939.71,-4659.27 -278.59,-2946.09 600.4,-4489.44 2153.68,-6020.63zm23.42 -1083.08c-2919.1,1068.02 -3784.43,4760.41 -3570.31,7741.92 222.4,3095.65 2324.67,6011.11 5864.36,5211.5 5460.46,-1233.56 3761.84,-15169.09 -2294.05,-12953.42z"/>
   <path class="fil4" d="M69759.03 86533.03c-148.65,-1358.78 -485.1,-1546.75 -297.3,-3085.22 2349.67,26.32 2810.68,6376.36 253.85,6528.24 -192.35,-1376.5 197.56,-2034.91 43.45,-3443.02zm-1639.28 -5173.51c-1553.28,1531.19 -2432.27,3074.54 -2153.68,6020.63 195.42,2066.27 1866.31,4829.03 3939.71,4659.27 3794.03,-310.62 3112.11,-10600.03 -1786.03,-10679.9z"/>
   <path class="fil4" d="M50953.75 92867.34c-713.12,-1405.79 140.78,-4046.64 840.99,-4843.18 365.58,1492.53 17.63,3706.13 -840.99,4843.18zm-1506.2 -5847.14c-4191.97,1776.83 -2448.57,9585.3 1731.65,7941.8 3815.39,-1500.06 2590.77,-9774.01 -1731.65,-7941.8z"/>
   <path class="fil1" d="M49447.55 87020.2c4322.42,-1832.21 5547.04,6441.74 1731.65,7941.8 -4180.22,1643.5 -5923.62,-6164.97 -1731.65,-7941.8zm262.46 -1513.15c-5482.48,1700.03 -4228.06,12269.11 2319.7,10895.18 2544.26,-533.93 3679.73,-3531.91 3168.73,-6412.2 -440.81,-2485.15 -2459.91,-5422.13 -5488.43,-4482.98z"/>
   <path class="fil1" d="M46128.85 99475.11c2919.27,-2112.46 3198.03,4383.91 908.29,5682.94 -1447.6,821.29 -2314.99,-516.14 -2402.72,-1989.05 -104.95,-1761.28 451.32,-2939.14 1494.43,-3693.89zm-3223.6 4018.83c577.05,5345.74 8645,4031.4 7475.33,-2298.35 -1070.5,-5793.1 -8118.59,-3660.7 -7475.33,2298.35z"/>
   <path class="fil4" d="M80849.12 84283.1c968.21,-967.38 3682.13,-2191.92 5313.22,-1435.18 -614.13,620.17 -4091.08,1920.77 -5313.22,1435.18zm-587.73 3053.76c630.44,-86.32 2381.95,-1427.89 4009.89,-2228.08 1711.95,-841.49 2720.96,-1199.71 4545.56,-1868.79 193.67,-5669.03 -11183.29,-3159.54 -8555.45,4096.87z"/>
   <path class="fil1" d="M69855.95 67598.46c108.51,-1563.63 328.75,-2130.17 1853.4,-2308.03 1543.43,-180.19 2468.35,-25.74 3117.33,872.94 -1075.64,1144.17 -2841.14,1814.08 -4970.73,1435.09zm798.12 -3326.15c-6157.77,2051.71 -500.74,7081.28 3266.81,5243.36 4441.35,-2166.67 2026.96,-7007.2 -3266.81,-5243.36z"/>
   <path class="fil1" d="M82531.44 113963.94c-3228.65,-2155.25 -5534.87,-5283 -7002.82,-5997.53 90.38,3923.81 7443.72,9227.01 13661.58,9947.16l2508.08 -136.73c54.46,-19.78 167.35,-25.65 205.1,-121.33 37.49,-95.02 138.38,-78.96 195.82,-133.09 -1722.13,-1255.74 -5213.89,-651.96 -9567.76,-3558.48z"/>
   <path class="fil1" d="M116634.27 111988.13c-800.19,-682.91 -70.68,-259.39 -984.51,-630.68 421.69,4202.82 7682.25,9228.5 13573.67,9990.37 1028.38,133 2211.7,205.43 3031.84,-318.32 -290.1,-262.54 -115.3,-168.19 -604.12,-411.69l-4659.52 -1205.33c-6020.71,-2016.86 -7117.37,-4659.36 -10357.36,-7424.35z"/>
   <path class="fil1" d="M33912.72 96878.88c-787.61,-2934.16 1274.52,-5941.08 2879.7,-4362.22 895.79,881.05 423.77,2415.3 -212.54,3318.78 -725.04,1029.45 -1141.6,1377.24 -2667.16,1043.44zm640.86 -5757.09c-1504.86,978.55 -2178.67,2514.62 -1776.26,4763.39 383.13,2140.93 1958.68,3248.93 4194.79,2103.69 3773.75,-1932.77 1413,-9358.53 -2418.53,-6867.08z"/>
   <path class="fil1" d="M111029.3 59507.22c4.97,-1778.16 -1166.93,-2029.44 -2059.07,-3103.18 154.11,-2498.15 2070.58,-2131.99 2404.21,-5201.4 218.51,-2010.24 -445.7,-4836.06 -2306.71,-4953.09 -100.89,971.35 902.24,2335.51 874.93,3938.37 -47.34,2773.77 -4003.35,4707.45 -2076.46,7166.62 377.01,481.12 2361.67,1850.08 3163.1,2152.68z"/>
   <path class="fil5" d="M131855.34 115903.5c1547.32,-3291.89 -3122.05,-5557.79 -4185.77,-2540.36 -1367.39,3878.53 2818.46,5449.2 4185.77,2540.36z"/>
   <path class="fil5" d="M113481.85 87117.03c-2587.29,2047.07 145.58,6740.95 2656.07,4495.32 2525.96,-2259.62 -202.7,-6436.53 -2656.07,-4495.32z"/>
   <path class="fil5" d="M87235.58 111677.18c131.51,1193.33 1168.41,2625.53 2766.48,2275.84 1018.94,-223.06 2065.11,-1889.24 1939.31,-3147.63 -299.45,-2997.15 -5162.25,-3270.53 -4705.79,871.79z"/>
   <path class="fil5" d="M161071.78 112940.61c520.68,-1114.7 532.85,-3826.23 -522.59,-4359.99 -1592.44,-805.32 -2185.3,1376 -2668.32,2100.54 -498.67,747.88 -2087.71,2529.52 -176.79,3472.15 1010.83,498.59 2639.68,345.97 3367.7,-1212.7z"/>
   <path class="fil4" d="M46128.85 99475.11c-1043.11,754.75 -1599.38,1932.61 -1494.43,3693.89 87.73,1472.91 955.12,2810.34 2402.72,1989.05 2289.74,-1299.03 2010.98,-7795.4 -908.29,-5682.94z"/>
   <path class="fil3" d="M95227.62 72987.91c1417.72,115.62 384.95,-37.58 750.7,403.15 -668.84,1232.32 -1596.66,6553.9 -1972.09,8724.79 1735.62,-79.71 666.86,-2610.3 1771.79,-4801.55 257.49,1082.01 174.14,1355.55 62.08,2445.84 -19.37,188.54 -102.14,839.67 -103.21,1005.04l175.55 1164.36c612.3,-870.38 547.33,-2337.92 1362.75,-4528.17 788.11,-2116.68 596.01,-3173.86 612.64,-5518.9l-2660.21 1105.44z"/>
   <path class="fil1" d="M159364.55 87460.43c67.86,-1508.51 -470.2,-2578.27 152.2,-3900.63 433.54,-921.12 1712.78,-1937.16 2028.78,-2341.39 1024.41,-1310.12 1160.15,-5561.19 -1446.93,-6172.42 696.9,3886.4 1231.24,3842.94 -502.97,5689.39 -184.16,196.16 -411.85,501.73 -525.98,650.46 -1213.61,1582.75 -2282.55,5263.06 294.9,6074.59z"/>
   <path class="fil1" d="M138846.04 60160.88c1472.42,-619.1 609.5,-1554.86 2468.69,-3552.85 2366.88,-2543.59 3722.77,-6122.51 835.2,-6181.52 -113.56,1390.89 636.72,1375.75 -87.32,2846.18 -377.5,766.67 -4615.58,4105.57 -3216.57,6888.19z"/>
   <path class="fil5" d="M148736.21 97789.57c653.36,-1241.34 -135.9,-2392.79 -871.7,-3060.31 -1023.33,-928.31 -2147.22,-442.97 -2631.49,287.45 -1924.41,2902.39 2595.07,4498.38 3503.19,2772.86z"/>
   <path class="fil5" d="M132873.29 73040.55c2424.73,-1133.08 556.19,-4481 -1574.31,-4076.02 -2530.76,481.21 -1500.23,4929.26 1574.31,4076.02z"/>
   <path class="fil4" d="M33912.72 96878.88c1525.56,333.8 1942.12,-13.99 2667.16,-1043.44 636.31,-903.48 1108.33,-2437.73 212.54,-3318.78 -1605.18,-1578.86 -3667.31,1428.06 -2879.7,4362.22z"/>
   <path class="fil5" d="M106139.85 115198.99c-874.35,-623.07 -1612.3,-1197.72 -2829.96,-781.9 -434.94,2673.7 3397.16,3880.85 4373.97,2828.22 1006.04,-1084.16 -122.74,-1115.36 -681.58,-1454.54l-862.43 -591.78z"/>
   <path class="fil5" d="M141528.29 105677c592.45,-874.19 724.96,-2873.34 -1110.97,-1791.33 -776.03,457.37 -276.45,511.09 -1357.13,637.97 -889.5,104.53 -729.67,-365.66 -1579.86,206.17 -1581.09,1063.56 2460.91,3288.99 4047.96,947.19z"/>
   <path class="fil5" d="M148042.29 120609.87c-237.37,-1979.29 265.77,-431.05 -801.43,-1324.1 -898.35,-751.78 -2252.33,-1677.85 -3405.85,-1688.12 -1389.82,2228.33 1931.44,4096.71 4207.28,3012.22z"/>
   <path class="fil5" d="M97239.27 101375.36c-854.73,2597.05 4956.49,2707.46 4401.62,-959.93 -1456.11,-575.15 -1502.71,-28.06 -2225.18,714.85 -494.04,23.01 -954.14,-49.49 -1174.71,-30.79 -99.32,8.45 -182.83,18.21 -270.9,30.21l-730.83 245.66z"/>
   <path class="fil2" d="M69715.58 89976.05c2556.83,-151.88 2095.82,-6501.92 -253.85,-6528.24 -187.8,1538.47 148.65,1726.44 297.3,3085.22 154.11,1408.11 -235.8,2066.52 -43.45,3443.02z"/>
   <path class="fil5" d="M124922.04 79283.15c-1129.93,67.46 -3047.89,-583.01 -2562.38,937.42 254.76,797.54 2108.07,1891.06 3505.43,654.02 971.6,-860.11 1289.84,-1476.72 918.05,-2400.57 -1068.11,-282.23 -1523.41,112.65 -1861.1,809.13z"/>
   <path class="fil4" d="M69855.95 67598.46c2129.59,378.99 3895.09,-290.92 4970.73,-1435.09 -648.98,-898.68 -1573.9,-1053.13 -3117.33,-872.94 -1524.65,177.86 -1744.89,744.4 -1853.4,2308.03z"/>
   <path class="fil1" d="M85625.18 69007.15c41.63,25.25 2761.93,771.64 1050.64,3030.51 -755.57,997.26 -1929.62,1329.57 -2935.32,2131.5 4084.54,-7.54 6503.65,-3906.43 3600.52,-5068.48 -1699.2,-680.09 -1695.64,-101.72 -1715.84,-93.53z"/>
   <path class="fil5" d="M103933.87 79140.96c-197.65,2609.22 1751.26,4778.38 3538.36,2725.68 -441.56,-1088.3 -357.88,-111.24 -1450.32,-1636.06 -556.11,-776.27 -750.95,-1459.42 -2088.04,-1089.62z"/>
   <path class="fil5" d="M122200.42 107599.34c721.81,-830.15 -455.47,-1014.06 -1113.21,-1832.21 -639.63,-795.64 -609.42,-1371.28 -2067.85,-1270.47 -912.59,2457.76 2068.1,4382.75 3181.06,3102.68z"/>
   <path class="fil5" d="M80759.73 102009.52c-382.96,-537.58 -1290.66,-1678.43 -1902.47,-696.24 -801.77,1287.02 823.61,3895.17 3390.12,2899.41 -188.79,-1774.53 183.17,-364.43 -700.2,-1271.55l-787.45 -931.62z"/>
   <path class="fil5" d="M148880.55 113595.71c2079.11,478.81 3003.45,-1480.78 3018.92,-3334.67 -1641.92,-384.29 -1725.85,-158.42 -2446.83,973.58 -465.81,731.58 -696.4,1181.91 -572.09,2361.09z"/>
   <path class="fil5" d="M145819.51 71928.33c-980.63,-1799.11 -2402.23,-3331.45 -3887.98,-4317.53 -600.39,2546.4 1234.14,4079.74 3887.98,4317.53z"/>
   <path class="fil5" d="M160791.11 97061.71c-929.38,-1607.82 -2166.83,-2594.16 -3494.41,-3912.63 -101.22,77.88 -654.69,121.42 -384.62,1519.76 91.46,473.35 551.64,1069.76 796.3,1331.22 833.3,890.58 1646.07,1355.89 3082.73,1061.65z"/>
   <path class="fil5" d="M111136.73 110076.8l54.13 -3419.18 -973.42 10.84c-1112.88,1185.88 -1472.92,1667.01 -1541.2,3608.22 1365.07,-12 1435.75,-157.17 2159.96,-649.31l300.53 449.43z"/>
   <path class="fil5" d="M143251.67 85270.75l2996.15 455.8c1078.87,-2400.16 -1799.59,-3565.18 -2769.13,-1521.25 -347.78,733.23 -189.37,-252.11 -227.02,1065.45z"/>
   <path class="fil2" d="M65933.88 98568.07l-522.18 -27.56 -365 6398.87c2369.78,-950.91 1217.5,-4507.32 907.46,-5715.05 -116.71,-454.56 -101.56,-430.8 -20.28,-656.26z"/>
   <path class="fil1" d="M57441.84 108099.08c539.97,1549.23 805.15,1560.24 2673.45,1602.37 -55.7,-63.81 -137.4,-246.73 -166.69,-191.85l-1284.63 -1237.86c-600.06,-1697.47 -156.68,-2661.79 -450.66,-4412.22 -762.7,1050.56 -992.21,2779.39 -771.47,4239.56z"/>
   <path class="fil1" d="M37800.52 83745.77c1632.33,-494.86 5417.09,-1832.87 6344.16,-2980.93 -1577.7,-33.1 -2335.18,335.87 -3574.86,923.85 -1503.71,713.28 -2313.17,784.88 -2769.3,2057.08z"/>
   <path class="fil1" d="M63510.38 67489.54c2834.35,-635.9 3864.39,-1522.33 3843.78,-4668.3 -283.48,244.5 -243.75,151.8 -512.41,480.38l-1184.15 2022.41c-453.31,776.44 -1383.86,1460.92 -2147.22,2165.51z"/>
   <path class="fil1" d="M89158.5 72295.48c2203,-795.64 3642.9,-3867.86 -939.74,-4237.5l417.31 303.76c1973.5,1217.42 1445.36,1664.52 522.43,3933.74z"/>
   <path class="fil2" d="M80849.12 84283.1c1222.14,485.59 4699.09,-815.01 5313.22,-1435.18 -1631.09,-756.74 -4345.01,467.8 -5313.22,1435.18z"/>
   <path class="fil1" d="M82069.27 70524.68c1382.54,-219.25 1374.34,-126.05 1857.95,-1261.86 352.42,-827.92 529.96,-1698.54 658.16,-2627.18 -1381.71,648.97 -2155,2385.42 -2516.11,3889.04z"/>
   <path class="fil2" d="M50953.75 92867.34c858.62,-1137.05 1206.57,-3350.65 840.99,-4843.18 -700.21,796.54 -1554.11,3437.39 -840.99,4843.18z"/>
   <path class="fil1" d="M81401.67 69325.23c161.98,-295.15 357.72,-513.16 445.29,-979.3 230.67,-1227.85 -241.43,-1324.19 -385.53,-1505.61 -65.63,193.92 -339.09,874.93 -387.43,1107.5 -366,1763.51 101.22,1121.41 327.67,1377.41z"/>
  </g>
 </g>
</svg>
