<?xml version="1.0" encoding="UTF-8"?>
<!DOCTYPE svg PUBLIC "-//W3C//DTD SVG 1.1//EN" "http://www.w3.org/Graphics/SVG/1.1/DTD/svg11.dtd">
<!-- Creator: CorelDRAW -->
<svg xmlns="http://www.w3.org/2000/svg" xml:space="preserve" width="2000mm" height="2000mm" version="1.1" style="shape-rendering:geometricPrecision; text-rendering:geometricPrecision; image-rendering:optimizeQuality; fill-rule:evenodd; clip-rule:evenodd"
viewBox="0 0 200000 200000"
 xmlns:xlink="http://www.w3.org/1999/xlink"
 xmlns:xodm="http://www.corel.com/coreldraw/odm/2003">
 <defs>
  <style type="text/css">
   <![CDATA[
    .str0 {stroke:#2D1008;stroke-width:7.62;stroke-miterlimit:22.9256}
    .fil0 {fill:#1F1F1F}
    .fil4 {fill:#E2AD4A}
    .fil3 {fill:#F5B522}
    .fil1 {fill:#FDD281}
    .fil2 {fill:#FDE043}
   ]]>
  </style>
 </defs>
 <g id="Camada_x0020_1">
  <metadata id="CorelCorpID_0Corel-Layer"/>
  <g id="_2023012557744">
   <path class="fil0" d="M94316.88 12335.21c19362.7,-1146.22 36746.31,3582.21 52417.69,13108.25 8906.45,5413.93 14014.68,10319.81 20443.84,17975.59 3685.57,4388.83 7907.61,11340.25 10603.36,16722.73 14495.36,28942.6 13123.56,59115.37 -3046.29,86695.74 -1088.25,1856.05 -6550.84,9584.28 -8106.66,11102.91 -608.66,594.17 -746.19,665.53 -1257.23,1291.42 -2893.17,3543.11 -7410.79,7344.61 -11530.56,10465.54 -13094.86,9920.33 -29988.75,16783.16 -47625.28,17847.35 -13898.47,838.88 -26535.05,-934.59 -38282.99,-5517.28 -11978.16,-4672.65 -17815.9,-9216.52 -26707.85,-17044.83 -1798.9,-1583.71 -6401.83,-6680.72 -8004.95,-8670.47 -10979.05,-13625.04 -18795.6,-32470.41 -20465.72,-50636.84 -1742.57,-18951.46 3441.67,-37634.41 12602.14,-52896.48 2361.61,-3934.38 6202.22,-8926.68 9291.98,-12465.14 14486.34,-16589.84 37078.52,-26641.41 59668.52,-27978.49zm-1129.27 -3230.3c-6736.5,325.38 -13442.11,1571.13 -19518.82,3323.82 -11496.38,3315.61 -21028.17,8141.11 -30314.68,15057.53 -2890.43,2152.72 -5252.87,4135.91 -7523.16,6606.9 -2679.35,2916.14 -3800.14,3636.08 -6799.4,7546.68 -2550.28,3324.91 -4729.8,6266.75 -6991.34,10147.82 -2798.01,4801.71 -5185.33,9911.85 -7307.42,15601.12 -11388.11,30529.86 -5635.68,62733.12 13607.26,88254.02 2760.28,3660.96 4756.32,5952.3 7849.36,9284.05 8251.31,8888.4 19085.17,15997.87 30869.47,20521.77 11682.86,4485.35 25985.45,6372.57 39643.85,5326.15 13608.63,-1042.59 24788.65,-4678.66 35428.64,-9864.82 9753.81,-4754.13 17380.06,-10505.19 24554.6,-18055.7 17156.11,-18054.88 26178.22,-44398.8 24081.83,-69651.46 -1683.51,-20282.24 -9919.78,-37111.34 -20986.06,-52608.55 -4592.53,-6431.35 -14947.61,-14484.43 -21609.74,-18448.89 -16756.64,-9972.01 -34467.81,-14031.35 -54984.39,-13040.44z"/>
   <path class="fil0" d="M94318.71 15158.52c21253.24,-1079.51 40573.95,4787.05 56904.96,16965.74 4164.04,3105.52 8978.89,7519.47 12339.22,11647.81l3433.65 4419.4c21415.13,28942.49 23751.55,65661.46 5072.66,96759.97 -1386.1,2307.81 -2749.31,4394.05 -4191.83,6432.33 -2223.6,3142.03 -6754.2,8451.8 -9810.11,11175.77 -14550.56,12970.14 -31862.69,20335.08 -52222.57,21902.15 -20422.01,1571.97 -41458.32,-4466.55 -57079.38,-16889.44 -2056,-1634.93 -3865.07,-3273.13 -5727.29,-4887.89 -1843.96,-1598.95 -3401.22,-3495.78 -5175.41,-5435.13 -11998.83,-13114.3 -20546.29,-33683.49 -22140.88,-51981.38 -1166.72,-13389.56 994.74,-25168.18 5223.1,-36439.61 4010.6,-10691.21 8882.68,-18024.54 15799.58,-26433.83 2463.15,-2994.87 7999.39,-7843.51 11073.84,-10147.78 5285.24,-3961 7266.01,-4998.53 13106.13,-8126.94 8773.67,-4699.84 22011.97,-8383.13 33394.33,-8961.17zm-79780.05 88680.72c882.19,16452.56 7866.68,34703.85 17058.68,47219.4 790.89,1077.05 1526.73,2092.51 2370.77,3159.75 1894.38,2394.75 5392.89,6555.79 7484.85,8433.81 4291.04,3852.81 6519.27,6032.8 11891.18,9576.55 24826.15,16376.53 58455.4,17860.48 85043.21,4797.68 5358.28,-2632.67 15221.26,-8431.64 19449.07,-12852.94 856.57,-895.82 1846.96,-1627.85 2779.3,-2525.84l3822 -4258.06c538.8,-655.72 757.38,-767.19 1284.45,-1484.77 718.67,-978.12 1555.35,-1913.18 2346.24,-2954.8 11879.19,-15650.5 18685.98,-36619.22 17657.44,-57067.94 -1249.02,-24828.33 -14735.06,-47333.32 -26967.99,-58841.04 -3632.05,-3416.48 -7295.72,-6496.65 -12046.52,-9402.4 -4554.58,-2785.84 -8841.53,-5152.79 -14176.64,-7293.54 -28197.12,-11312.86 -59893.29,-7561.71 -84168.93,10139.6 -3673.47,2678.46 -8681.55,6875.48 -11360.82,10098.45 -1841.24,2214.61 -2498.32,2504.59 -4975.37,5856.75 -1458.87,1974.5 -2961.08,4041.67 -4316.93,6299.06 -9566.19,15928.21 -14242.05,31181.36 -13173.99,51100.28z"/>
  </g>
  <g id="_2023012595712">
   <path class="fil0" d="M45001.89 85089.48c2618.83,2187.03 3723.26,481.87 3894.13,5954.19l15.95 20376.27c-71.88,1440.02 -380.36,2871.94 -1065.55,3892.74 -878.73,1308.86 -2353.15,1418.21 -1626.85,3302.63 886.56,283.03 4893.69,-163.89 7204.05,17.9 636.53,50.06 1941.19,335.88 2357.34,-166.13 644.92,-1182.44 -284.14,-1646.14 -860.54,-2162.69 -2266.18,-2031.81 -2005.8,-6365.87 -2005.25,-9151.39l-11.46 -13971.8c206.95,-929.63 -72.72,-286.94 381.19,-818.88 857.47,2968.71 3284.73,8725.18 4434.46,12165.41 663.38,1984.54 1438.91,4030.33 2207.72,6086.75 462.86,1237.83 1506.87,5539.45 2748.89,5816.6 2057.54,458.94 2330.22,-1776.19 3300.68,-5009.74 1010.45,-3366.12 5134.19,-17899.5 6014.04,-19064.05l10.07 19974.65c-260.66,4625.2 -2129.42,3810.52 -2387.27,5056.17 -219.55,1060.8 274.07,1272.23 1071.69,1330.4 1242.86,90.61 9432.47,69.08 9978.66,-199.69 691.07,-1942.31 -664.22,-1697.04 -1414.01,-3345.14 -1114.77,-2450.2 -592.07,-21574.37 -604.09,-25542.9 -5.04,-1624.61 -31.33,-3391.85 418.94,-4883.06 499.5,-1652.85 1766.96,-2211.63 860.55,-3408.07 -517.39,-396.85 -5608.8,-90.33 -7334.93,-154.65 -3353.81,-124.74 -1429.95,98.16 -3289.49,5859.1 -543.4,1683.34 -1063.31,3440.79 -1617.89,5239.91 -518.51,1682.5 -1047.65,3337.32 -1564.2,5041.35 -297.01,979.41 -1098.55,4484.53 -1850.86,5144.83l-5769.61 -16505.62c-1154.49,-3738.64 -1503.8,-4994.64 -6262.68,-4925 -2998.35,43.9 -7218.58,1428.83 -7233.68,4049.91z"/>
   <path class="fil0" d="M66450.13 37967.73c-1411.5,448.03 -1539.59,1042.33 -3061.28,20.7 -3043.38,-2043.28 -5062.32,-2983.81 -9856.44,-2196.82 -7196.49,1181.61 -11246.13,7690.95 -9273.61,13994.73 1905.12,6089.56 11133.14,8687.98 14392.43,11878.19 3472.67,3399.4 2569.33,8367.47 412.51,10404.59 -3562.17,3364.72 -10001.03,1723.61 -10996.38,-1490.08 -922.63,-2979.06 1747.66,-3581.75 2740.21,-5100.36 1743.19,-2666.67 -424.54,-4306.93 -3279.98,-3949.24 -7817.36,979.13 -7196.77,16015.36 6358.32,16406.06 12032,346.51 16377.53,-10195.12 12987.08,-17632.97 -1818.7,-3990.07 -4714.69,-5730.46 -8382.86,-7933.43 -2912.49,-1749.34 -7988.52,-4259.38 -8134.78,-8223.72 -194.37,-5268.44 7831.06,-5963.42 9606.69,-2732.66 1821.22,3313.54 -1478.34,4770.06 -2052.5,5355.69 -2194.86,2239.05 1149.17,3627.06 3573.07,2809.86 4449.57,-1499.88 4949.62,-6285.61 4967.52,-11610.54z"/>
   <path class="fil0" d="M99367.11 63820.79c0,-2770.14 -668.97,-10191.77 1283.69,-11494.2 5888.75,-3927.97 5484.07,16358.79 3218.46,18843.11 -1412.06,1548.26 -3327.81,229.89 -3948.96,-1071.42 -816.64,-1710.75 -553.19,-4245.68 -553.19,-6277.49zm108.8 -14091.5c-534.73,-4098.58 720.99,-7818.76 913.4,-11599.91 -1480.3,-5.03 -2826.91,282.75 -4346.64,250.86 -1295.72,-26.84 -2671.7,-412.79 -3919.03,-286.94 -273.52,1127.36 936.62,2962 1224.68,4785.73 515.71,3265.44 330.01,15081.25 332.53,18810.67 2.23,3273.82 250.02,8994.77 -643.81,11930.76 -991.99,3258.44 2220.03,591.5 2932.63,299.8 2294.7,-938.57 3264.32,387.35 5010.59,1051.85 3611.95,1373.74 7165.16,-1407.87 8400.47,-3253.14 3270.75,-4885.29 4334.34,-20316.41 -4866.55,-22483.3 -2717.56,-639.89 -3095.4,132.28 -5038.27,493.62z"/>
   <path class="fil0" d="M76027.74 68556.46c-123.62,-3314.94 965.7,-8676.79 4210.44,-7170.21 976.89,453.63 972.14,1771.16 999.55,3142.11 46.14,2329.09 549.27,5636.48 -1042.62,6889.69 -2395.38,1886.1 -4068.65,-211.71 -4167.37,-2861.59zm-3881.27 -12090.46c1095.47,-2695.19 2147.31,-5106.23 5670.04,-5129.44 3949.24,-26.01 3795.14,4042.36 3581.47,7383.31 -856.07,-249.47 -1053.8,-634.57 -1997.41,-975.77 -9638.86,-3484.7 -14377.04,14713.76 -5971.81,17321.98 5612.15,1741.51 7220.82,-2133.89 8829.21,-2880.34 608,3205.59 7534.05,6208.14 9483.92,-2994.99 265.96,-1254.6 92.85,-1074.22 -756.23,-1720.26 -256.74,-195.49 -2244.64,-2833.06 -2028.18,360.22 226.82,3341.79 -1167.06,3797.09 -1548.53,2791.95 -833.42,-2194.29 1336.54,-14732.5 -2140.33,-19469.57 -3403.59,-4636.94 -12842.76,-3106.58 -14682.72,694.43 -382.03,788.95 -536.41,1870.44 -389.58,2832.5 200.52,1315.3 632.34,1636.64 1950.15,1785.98z"/>
   <path class="fil0" d="M95012.36 108336.84c0,2047.2 72.43,4497.11 -374.48,6397.2 -316.59,1345.21 -1397.8,2777.69 -1181.33,4021.66 977.17,363.86 3069.67,-128.64 4243.73,-150.46 1359.76,-25.45 3447.5,593.18 4580.17,17.34 376.99,-1782.62 -1239.51,-1600.28 -1454.29,-6016 -121.1,-2488.51 -818.32,-12881.92 1936.44,-13709.19 4850.05,-1456.52 2502.77,12551.35 3693.05,19647.16 931.03,5548.95 6266.31,7843.65 8387.61,6917.38 31.33,-1264.95 -3543.15,-1257.12 -3548.18,-8600.72 -4.76,-6864.52 3547.34,-19694.42 -4323.99,-21780.21 -1396.96,-370.28 -2686.52,-373.64 -4018.32,62.93 -1626.84,533.05 -1484.49,902.78 -2097.81,1415.97 -722.39,604.65 26.29,186.82 -964.58,578.08l-183.47 -2071.8c-1696.76,-190.46 -3521.33,149.35 -5520.14,-45.59 -2352.87,-229.33 -419.79,2128.58 -70.2,2953.61 995.91,2352.59 895.51,7587.47 895.79,10362.64z"/>
   <path class="fil0" d="M123056.64 106169.4c3680.47,-2343.65 5736.89,6804.39 1896.17,9301.29 -4342.17,2822.72 -4281.21,-4254.63 -3427.37,-6978.07 392.94,-1253.76 764.34,-1834.64 1531.2,-2323.22zm-4518.64 -5057.01c761.82,-683.24 1316.13,-2352.6 1975.03,-3113.3 769.66,-888.51 2214.72,-1648.1 3707.88,-1572.59 3034.99,153.54 3492.25,4382.44 2737.14,7174.68 -248.07,88.93 -224.3,205 -835.1,-211.43 -918.44,-626.47 -1243.14,-1101.07 -3319.69,-974.38 -1637.48,99.57 -3069.39,816.36 -4108.37,1583.22 -6710.14,4952.13 -4982.34,12871.85 -610.8,14726.91 4408.45,1870.44 7096.09,-906.97 8978.27,-1612.02 1117.29,861.38 1029.75,1377.66 2793.64,1907.07 1293.2,388.19 2867.18,296.17 3971.88,-382.59 1841.08,-1130.71 2897.95,-4001.81 2896.28,-6804.39 -953.96,-298.13 -1803.6,-1332.07 -2466.7,-829.5 -1056.32,904.45 956.47,3523.01 -1275.58,3995.1 -2272.89,-2305.33 2303.09,-16298.11 -3654.74,-20281.74 -3882.67,-2596.18 -11665.63,-1232.79 -12647.56,2524.03 -501.45,1918.26 190.74,3369.2 1858.42,3870.93z"/>
   <path class="fil0" d="M119176.2 67372.61c-289.73,-2662.47 -1452.61,-18301.67 4704.35,-15080.14 3615.3,1891.7 2409.08,15289.05 1510.22,17879.64 -329.45,949.21 -689.11,1657.05 -1267.47,2074.04 -996.46,718.76 -2087.74,622.55 -2890.68,12.31 -1333.19,-1013.53 -1836.31,-2862.99 -2056.42,-4885.85zm2005.8 -19019.3c-6045.36,942.21 -9175.72,7961.39 -8505.91,14986.16 594.86,6238.06 4154.79,13225.08 11315.77,12105.28 6295.95,-984.72 8849.34,-8091.72 8398.24,-15178.58 -410.84,-6452.85 -4308.34,-12988.2 -11208.1,-11912.86z"/>
   <path class="fil0" d="M141743.13 110966.59c-1092.12,44.47 -1390.8,1209.02 -2088.58,2124.1 -1011.57,1327.04 -1179.93,1295.16 -2241.01,2349.8 866.42,2546.96 6037.82,5223.97 10279.59,4282.6 7986.28,-1772 10769.57,-11354.92 317.14,-15977.04 -1731.44,-765.74 -3888.26,-1506.59 -4075.08,-3518.82 -257.3,-2772.94 1870.16,-3633.49 4033.69,-2654.92 424.26,2123.82 -1061.35,2043.56 -1596.08,3660.89 382.03,1594.97 1440.59,1874.08 3100.15,1533.44 3685.23,-756.23 3997.9,-5160.77 3570.28,-6200.58 -434.05,-1055.76 -327.21,257.29 -3646.35,-1324.25 -5528.25,-2634.5 -11354.08,937.18 -11192.43,6703.72 171.72,6117.8 6595.2,6915.7 9714.09,9916.85 3756.82,3615.02 -1872.67,7976.49 -5067.63,2937.1 -826.99,-1304.66 -576.97,-3112.74 -1107.78,-3832.89z"/>
   <path class="fil0" d="M140923.13 54760.85c-36.07,-1474.15 232.97,-3551.82 -127.25,-4886.97 -1190.56,-370.28 -2471.17,-8.11 -3794.57,2.8 -1429.96,11.74 -2534.38,-250.03 -3890.22,-312.12 -710.65,2123.82 682.11,805.74 1600.55,4962.2 549.56,2486.56 626.75,11785.06 289.74,14382.92 -279.95,2158.22 -1769.48,4584.09 -1444.5,5954.75 1282.85,52.58 2908.3,-405.24 4395.87,-418.94 1351.37,-12.31 3264.04,449.43 4322.03,334.2 581.16,-1355 -858.31,-3398.28 -1160.91,-5148.74 -331.41,-1916.86 -276.59,-4542.41 -249.19,-6520.81 24.33,-1745.98 233.25,-4523.67 1431.08,-5397.09 1800.24,-1312.21 1788.77,2064.54 4749.37,740.01 2816.29,-1259.63 3552.94,-8556.25 1342.7,-9557.47 -3801.01,-1722.21 -6233.86,4983.74 -7464.7,5865.26z"/>
   <path class="fil0" d="M82600 95076.81c-298.96,1055.2 1104.7,2919.76 1427.16,4918.01 349.87,2166.89 352.11,11408.9 32.17,13628.92 -254.5,1764.45 -1848.35,3942.8 -1513.3,5047.5 1157.28,386.79 3151.05,-71.03 4496.83,-86.41 1304.94,-15.11 3459.53,308.47 4483.12,194.09 276.6,-1380.46 -984.16,-2799.23 -1386.61,-4568.71 -865.86,-3806.6 278.27,-18185.04 161.93,-19156.06 -283.86,-50.62 -7648.72,5.04 -7701.3,22.66z"/>
   <path class="fil0" d="M98350.23 88917.62c-575,-927.11 -1509.1,-5884.28 546.48,-5884.56 1744.58,0 1176.29,4846.98 499.77,5891.27l-1046.25 -6.71zm679.6 -10954.43c270.72,1676.62 967.38,1684.73 900.26,3963.21 -3949.79,-1412.62 -5169.16,1731.45 -4606.46,5392.62 239.68,1559.72 961.23,2808.17 2227.3,3173.42 1189.16,342.88 1375.42,-107.67 2311.48,-144.03 481.87,-18.74 1900.92,148.79 2552.56,175.36l-250.59 -12664.34 -3134.55 103.76z"/>
   <path class="fil0" d="M85756.93 83472.42c-5034.64,1711.87 -2202.97,8672.32 2468.1,7078.47 4524.23,-1543.78 2393.42,-8731.88 -2468.1,-7078.47z"/>
   <path class="fil0" d="M105782.76 85997.57c-725.74,-1964.97 191.3,-4045.44 2107.6,-2359.3l-52.85 1288.72c-445.8,403.85 -1176.86,896.07 -2054.75,1070.58zm343.72 1603.91c1002.62,-517.95 2430.9,-1052.96 3272.15,-1893.93 1113.37,-1113.37 448.59,-2788.04 -427.34,-3557.97 -3917.91,-3443.87 -7693.74,3883.23 -4720.84,7328.78 3344.3,3875.68 7544.68,-2631.99 4929.48,-1855.9 -816.92,242.47 -70.76,1030.03 -1344.1,1344.1 -1159.8,285.82 -1513.86,-478.52 -1709.35,-1365.08z"/>
  </g>
  <g id="_2023012595424">
   <path class="fil1" d="M119832.31 162674.53c557.16,4.96 1211.14,452.26 1645.05,815.37 515.46,431.35 272.44,-316.46 387.1,639.55 -1099.25,523.82 -2703.44,-378.62 -2032.15,-1454.92zm-5786.26 -818.29c-660.42,1404.99 -2682.21,646.35 -2021.75,-1227.01 513.78,-1457.44 2769.12,-362.99 2021.75,1227.01zm14111.74 -1431.09c-351.64,752.84 -1138.39,826.56 -1626.63,585.74 -922.98,-455.3 -155.47,-1315.84 85.4,-1677.07 233.3,-349.96 519.66,-1403.55 1288.81,-1014.58 509.79,257.81 503.91,1567.5 252.42,2105.91zm-21939.14 -764.68c441.38,179.33 89.03,-25.23 475.52,304.62 1564.94,1335.51 2094.63,2611.85 5002.68,3586.01l2250.58 582.19c236.1,117.61 151.67,72.03 291.79,198.84 -396.13,252.98 -967.68,218 -1464.4,153.75 -2845.59,-367.99 -6352.49,-2795.42 -6556.17,-4825.41zm16050.69 1081.09c-60.04,-569.55 51.33,-787.06 276.32,-1140.42 348.24,-546.76 388.78,-655.86 1181.84,-470.25 -7.47,895.45 -453.94,1841.94 -1458.16,1610.67zm-14423.15 -4394.9c704.43,-48.69 689.84,229.35 998.78,613.65 317.7,395.17 886.33,484 537.69,884.96 -537.57,618.29 -1977.26,-311.5 -1536.47,-1498.61zm10871.96 570.11c-766.55,1131.11 -2718.87,56.21 -1955.19,-457.5 410.64,-276.2 333.45,-49.09 763.08,-99.58 521.98,-61.28 280.68,-87.23 655.5,-308.14 886.77,-522.62 822.77,442.98 536.61,865.22zm3481.47 -3809.68c-438.62,833.44 -2621.56,62.56 -1692.06,-1339.31 233.91,-352.79 776.75,-587.22 1271.03,-138.84 355.39,322.42 736.61,878.58 421.03,1478.15zm-17028.09 -5154.91c1185,-937.61 2502.96,1079.86 1282.9,2171.27 -1212.58,1084.66 -2532.58,-1182.52 -1282.9,-2171.27zm-3603.2 -3326.2c527.66,736.5 487.24,264.57 700.52,790.23 -863.19,991.47 -1804.52,-56.25 -1709.06,-1316.52 645.83,-178.62 739.94,151.35 1008.54,526.29zm9128.89 -457.61c163.11,-336.41 383.02,-527.14 898.92,-390.82 179.58,446.23 25.87,744.05 -443.42,1159.49 -674.93,597.5 -1570.09,69.32 -1693.14,-315.89 -234.51,-734.38 691.88,-420.2 1237.64,-452.78zm3840.51 -3015.22c-1485.03,412.12 -1982.78,-1736.32 -760.41,-1968.75 1029.05,-195.6 1931.57,1421.46 760.41,1968.75zm13484.49 11602.38c-693.92,142.12 -1086.49,-82.63 -1488.98,-512.78 -118.17,-126.29 -340.44,-414.36 -384.61,-642.99 -130.45,-675.41 136.88,-696.44 185.77,-734.06 -1093.85,-1448.68 -4788.88,-3086.18 -7229.35,-3463.8 -194.77,-30.14 -434.71,-56.89 -621.8,-90.55l-651.78 -201.16c457.53,-206.12 1116.71,-87.03 1719.08,-49.77 18.19,-636.39 -58.32,-160.47 109.66,-514.62 468.29,-987.23 1858.61,-424.52 1337.51,734.77l1181.48 359.95c792.02,-2214.84 322.89,-4440.83 -877.26,-6408.22l-511.1 -616.36c-1281.82,-114.86 -2167.91,-855.47 -1877.92,-2085.4 -1247.52,-1596.44 -4721.55,-2999.23 -7161.23,-3368.93 -476.88,-72.28 -936.9,-79.96 -1305.68,-387.38l-143.8 -15.03c-569.99,654.74 -2986.04,773.95 -3904.19,1044.6 -1273.7,375.46 -2383.66,834.11 -3445.29,1490.38 -4544.38,2809.21 -7151.67,9518.42 -4002.25,12630.11 1414.35,1397.35 4068.17,2947.89 6759.46,3104.36l478.2 -727.1c-1742.55,-110.73 -3272.79,-644.26 -4457.02,-1485.78 -966.05,-686.48 -2548.17,-2108.54 -2733.03,-3351.18 1499.66,521.25 1993.45,3477.99 7557.88,4351.96 1164.29,-1330.23 2408.73,-2581.83 4379.4,-3430.86 1486.34,-640.39 4792.83,-1629.82 6598.99,-1252.63 -715.91,458.53 -3879.56,400.65 -6780.33,2063.53 -3912.26,2242.74 -7218.67,7452.9 -5606.76,11328.98 856.18,2058.81 2643.71,3212.42 4971.81,4041.23 4484.73,1596.63 10884.51,1514.72 15069.38,-367.35 4456.83,-2004.37 6165.28,-6868.92 2833.76,-11443.92z"/>
   <path class="fil0" d="M65618.56 159839.36c-712.79,558.04 -366.19,254.54 -1218.46,581.95 -938.38,360.51 -2488.44,1247.68 -3033.29,1995.69 -980.55,1346.14 226.07,2475.57 1177.64,3190 334.73,251.33 748.77,355.67 1138.22,554.44 1989.94,1015.61 3751.88,1340.66 5720.78,1877.07l6264.27 1205.75c569.67,57.92 773.39,189.49 1413.3,237.34 1217.22,91.07 2052.18,177.82 3117,316.78 3296.34,430.19 9254.06,816.49 12539.09,860.5 12429.26,166.46 19589.21,136.44 31639.58,-1906.1 525.57,-89.07 1054.07,-86.07 1549.62,-192.97l6568.37 -1868.4c2026.63,-802.14 5714.39,-2713.31 2631.56,-4982.52 -2116.17,-1557.67 -1886.87,-1002.91 -3375.53,-1690.51 -418.52,-193.33 -621.4,-285.35 -1263.95,-320.73l-38.1 -260.77c-328.73,369.18 -463.25,1141.78 -685.56,1591.2 -2776.92,5613.64 -12312.18,6180.23 -17637.5,4928.19 -3818.8,-897.84 -3579.34,-1171.96 -5992.62,-2686.45 -3883.48,1520.81 -7955.29,1996.89 -12325.09,1238.53 -1755.67,-304.7 -4098.24,-951.33 -5342,-1691.9 -925.78,-551.21 -2324.26,-1629.58 -2856.71,-2500.88 -184.85,-302.55 -386.7,-785.43 -627.52,-1131.03 -3575.73,969.56 -14532.97,3695.83 -18412.25,2540.98 -1234.81,-367.59 -1033.96,-676.01 -950.85,-1886.16z"/>
   <path class="fil1" d="M100258.41 161138.29c588.14,-200.84 944.57,76.72 1366.89,377.67l416.56 285.83c269.92,163.83 815.13,178.9 329.21,702.56 -471.81,508.42 -2322.74,-74.64 -2112.66,-1366.06zm-7764 -1323.39c-220.48,-2000.77 2128.29,-1868.72 2272.93,-421.08 60.76,607.81 -444.55,1412.59 -936.7,1520.32 -771.88,168.91 -1272.71,-522.85 -1336.23,-1099.24zm-5654.54 -1792.33c709.03,345.12 1822.95,1855.85 3382.41,2896.85 2102.95,1403.87 3789.49,1112.24 4621.29,1718.77 -27.74,26.14 -76.47,18.39 -94.58,64.28 -18.23,46.22 -72.76,49.05 -99.07,58.61l-1211.42 66.04c-3003.26,-347.84 -6554.97,-2909.32 -6598.63,-4804.55zm3245.21 -1813.07c-1239.65,480.96 -2024.71,-778.79 -1637.46,-1400.43 295.51,-474.41 733.94,76.63 918.91,336.28l380.34 449.98c426.68,438.15 247.02,-242.94 338.21,614.17zm7241.18 -1370.45l353 -118.65c42.53,-5.8 82.87,-10.52 130.84,-14.59 106.54,-9.04 328.77,25.98 567.39,14.87 348.96,-358.83 371.47,-623.08 1074.78,-345.28 268.01,1771.38 -2538.85,1718.05 -2126.01,463.65zm6712.57 4202.85l-145.16 -217.07c-349.8,237.7 -383.94,307.82 -1043.28,313.62 32.98,-937.62 206.88,-1170.01 744.41,-1742.8l470.17 -5.23c275.96,-1401.03 621.6,-2443.87 1150.62,-3504.38 -1350.5,-781.59 -8359.34,-1087.25 -8443.41,-7999.18 -3000.87,50.13 -6516.44,1907.62 -8481.99,4114.02 -2081.4,2336.41 -3947.08,6276.26 -2314.82,9388.5 2098.95,4002.05 9636.96,5023.34 14255.01,4530.51 2231.64,-238.18 3379.25,-753.01 5247.77,-1199.03l-191.76 -339c-18.43,-28.95 -43.58,-67.2 -63.81,-97.99 -29.66,-45.17 -173.02,-237.42 -240.62,-341.2 -147.91,-227.03 -290.87,-496.43 -442.74,-825.12 -294.11,-636.6 -415.92,-1255.64 -500.39,-2075.65z"/>
   <path class="fil0" d="M104064.97 157390.42l-26.14 1651.48c84.47,820.01 206.28,1439.05 500.39,2075.65 151.87,328.69 294.83,598.09 442.74,825.12 67.6,103.78 210.96,296.03 240.62,341.2 20.23,30.79 45.38,69.04 63.81,97.99l191.76 339c-1868.52,446.02 -3016.13,960.85 -5247.77,1199.03 -4618.05,492.83 -12156.06,-528.46 -14255.01,-4530.51 -1632.26,-3112.24 233.42,-7052.09 2314.82,-9388.5 1965.55,-2206.4 5481.12,-4063.89 8481.99,-4114.02 84.07,6911.93 7092.91,7217.59 8443.41,7999.18 -529.02,1060.51 -874.66,2103.35 -1150.62,3504.38zm-14939.14 -9332.06c-1269.27,-3504.89 4225.88,-4716.99 4132.34,-1978.82 -881.29,323.18 -1368.65,496.2 -2195.54,902.64 -786.3,386.5 -1632.29,1034.49 -1936.8,1076.18zm6638.85 -2521.78l-2040.46 405.44c-519.98,-766.99 -139.52,-1145.53 -1358.54,-1714.77 -856.5,-399.97 -1711.17,-244.53 -2418.44,227.07 -1499.94,1000.15 -1979.66,2191.74 -1309.01,4231.64 -2769.48,2068.29 -3238.85,4992.64 -4043.34,7124.25l72.23 2280.68c-4117.7,2099.63 -4565.44,1074.18 -8817.07,2031.19 -3650.57,821.69 -5594.93,1379.88 -9393.42,721.74l102.98 -1361.93c126.17,-2415.77 -9.19,-3474.99 -606.85,-5593.45l-950.45 -5179.41c3609,-224.99 4850.24,-705.04 7871.5,-1854.77 2294.6,-873.26 3693.39,-362.23 7818.17,-1916.5 4459.62,-1680.43 9266.97,-1216.13 12407.68,-2257.65 1120.71,-371.67 2235.15,-1085.18 3254.96,-1552.39l1284.9 -533.93c-8.04,1132.67 84.75,1643.29 -295.91,2665.66 -393.85,1057.91 -362.47,1766.74 -658.22,2187.14l-84.79 -562.4c0.52,-79.87 40.49,-394.37 49.85,-485.44 54.13,-526.61 94.38,-658.73 -29.98,-1181.35 -533.7,1058.39 -17.47,2280.68 -855.79,2319.18zm-22033.84 -3695.19c1515.44,-1497.69 3859.01,-1562.5 8066.54,-4976.21 1407.83,-1142.22 1247.48,-1725.44 2495.8,-1496.93 3791.69,694.12 10188.64,2604.45 12662.41,4542.57l-3410.11 1648.13c-4250.07,1455.72 -8402.83,1042.36 -12571.06,2389.03 -1234.17,398.72 -2644.44,874.09 -3938.89,1119.11 -1430.38,270.76 -2869.15,284.79 -4198.54,746.25 -2314.7,803.45 -5095.1,2103.38 -7894.12,1738.08l8194.07 -5182.41c441.38,617.6 341.28,807.37 1047.95,1157.13 2408.85,1192.19 4338.42,-669.54 3182.33,-2378.99l-135.04 465.69c-20.03,127.41 -15.2,265.25 -29.51,407.09 -224.71,2229.39 -3330.36,1447.76 -3471.83,-178.54zm-8112.28 17997.97c-83.11,1210.15 -283.96,1518.57 950.85,1886.16 3879.28,1154.85 14836.52,-1571.42 18412.25,-2540.98 240.82,345.6 442.67,828.48 627.52,1131.03 532.45,871.3 1930.93,1949.67 2856.71,2500.88 1243.76,740.57 3586.33,1387.2 5342,1691.9 4369.8,758.36 8441.61,282.28 12325.09,-1238.53 2413.28,1514.49 2173.82,1788.61 5992.62,2686.45 5325.32,1252.04 14860.58,685.45 17637.5,-4928.19 222.31,-449.42 356.83,-1222.02 685.56,-1591.2 -129.28,-2376.83 639.95,-4017.76 -2026.71,-7396.02 -1265.51,-1603.23 -3146.82,-3147.22 -5477.68,-4063.45 270.57,-1818.67 817.61,-3245.21 -225.47,-5607.88 -2029.5,-4597.15 -6801.47,-7557.12 -12272.79,-7595.3 368.78,307.42 828.8,315.1 1305.68,387.38 2439.68,369.7 5913.71,1772.49 7161.23,3368.93 717.63,476.29 1404.27,1216.42 1877.92,2085.4l511.1 616.36c1200.15,1967.39 1669.28,4193.38 877.26,6408.22l-1181.48 -359.95 -1447.17 -220.15c-602.37,-37.26 -1261.55,-156.35 -1719.08,49.77l651.78 201.16c187.09,33.66 427.03,60.41 621.8,90.55 2440.47,377.62 6135.5,2015.12 7229.35,3463.8 641.23,636.84 1238.92,1113.24 1687.82,1889.83 3331.52,4575 1623.07,9439.55 -2833.76,11443.92 -4184.87,1882.07 -10584.65,1963.98 -15069.38,367.35 -2328.1,-828.81 -4115.63,-1982.42 -4971.81,-4041.23 -1611.91,-3876.08 1694.5,-9086.24 5606.76,-11328.98 2900.77,-1662.88 6064.42,-1605 6780.33,-2063.53 -1806.16,-377.19 -5112.65,612.24 -6598.99,1252.63 -1970.67,849.03 -3215.11,2100.63 -4379.4,3430.86 -5564.43,-873.97 -6058.22,-3830.71 -7557.88,-4351.96 184.86,1242.64 1766.98,2664.7 2733.03,3351.18 1184.23,841.52 2714.47,1375.05 4457.02,1485.78l-478.2 727.1c-2691.29,-156.47 -5345.11,-1707.01 -6759.46,-3104.36 -3149.42,-3111.69 -542.13,-9820.9 4002.25,-12630.11 1061.63,-656.27 2171.59,-1114.92 3445.29,-1490.38 918.15,-270.65 3334.2,-389.86 3904.19,-1044.6 -3282.19,347.64 -4712.84,467.65 -7439.91,1868.92 -3100.57,1593.24 -4084.48,4069.89 -4625.81,4514.63 -329.73,-1055.99 -243.54,-1227.21 -1004.02,-1783.41 -541.32,-395.89 -983.31,-712.31 -1628.18,-1054.43 -2572.15,-1364.61 -10290.22,-4091.56 -12619.19,-3765.31l-1395.64 1554.39c-1285.38,1230.41 -3497.34,3025.69 -5239.22,3491.9 -2117.61,566.76 -2033.38,1046.16 -3615.47,2178.59 -1180.4,844.91 -2289.24,1478.02 -3522.65,2258.29 -5864.45,3709.82 -5930.85,2804.78 -5006.63,5806.25 463.34,1504.57 580.27,3173.49 1111.04,4683.46 485.44,1380.92 515.22,3806.28 302.03,5326.88z"/>
   <path class="fil2" d="M71082.56 155862.34c-310.7,-2878.26 3093.58,-3908.23 3610.64,-1110.12 564.95,3057.32 -3331.92,3692.15 -3610.64,1110.12zm-4033.91 -5975.83c1850.65,-1203.39 2990.92,2383.3 1168.17,3316.84 -1080.06,553.16 -1841.06,17.99 -2026.11,-1016.09 -194.37,-1086.17 131.08,-1828.1 857.94,-2300.75zm7320.66 -2711.96c1462.79,-453.62 2438.03,964.97 2650.95,2165.31 246.82,1391.2 -301.63,2839.24 -1530.52,3097.14 -3162.61,663.61 -3768.5,-4441.32 -1120.43,-5262.45zm8903.34 -2526.42c2925.03,-1070.18 3745.48,5660.77 1108.04,6256.59 -1709.69,386.22 -2725.11,-1021.97 -2832.53,-2517.19 -103.42,-1440.09 314.54,-3223.54 1724.49,-3739.4zm-16713.04 14833.76l337.61 193.29c1811.47,-55.45 4643.08,196.37 5997.3,-370.43 83.87,-35.1 3976.5,-547.04 5209.31,-1218.09 -106.62,-705.28 4.24,-1540.32 372.63,-2047.74 142,845.47 -72.16,1311.24 217.67,2131.13l474.49 -325.01c-1310.73,-4813.07 4651.63,-6957.63 5190.76,-2541.74 251.02,203.72 124.05,-312.14 235.51,506.91 804.49,-2131.61 1273.86,-5055.96 4043.34,-7124.25 -670.65,-2039.9 -190.93,-3231.49 1309.01,-4231.64 707.27,-471.6 1561.94,-627.04 2418.44,-227.07 1219.02,569.24 838.56,947.78 1358.54,1714.77l2040.46 -405.44c181.34,-1048.56 629.48,-3618.91 952.53,-4214.13 -176.66,-212.88 322.17,-138.88 -362.59,-194.73 -1019.81,467.21 -2134.25,1180.72 -3254.96,1552.39 -3140.71,1041.52 -7948.06,577.22 -12407.68,2257.65 -4124.78,1554.27 -5523.57,1043.24 -7818.17,1916.5 -3021.26,1149.73 -4262.5,1629.78 -7871.5,1854.77l950.45 5179.41c597.66,2118.46 733.02,3177.68 606.85,5593.45z"/>
   <path class="fil2" d="M68616.95 146323.84c220.31,-614.48 611.28,-649.06 1337.59,-993.58 598.77,-284 964.64,-462.22 1726.68,-446.23 -447.78,554.52 -2275.85,1200.79 -3064.27,1439.81zm23099.63 -7118.85c9.75,-3.96 8.03,-283.31 828.76,45.18 1402.23,561.27 233.78,2444.47 -1739.08,2448.1 485.76,-387.33 1052.83,-547.84 1417.78,-1029.52 826.57,-1091.05 -487.36,-1451.56 -507.46,-1463.76zm-2039.99 153.63c-109.37,-123.65 -335.04,186.5 -158.27,-665.29 23.35,-112.34 155.44,-441.27 187.14,-534.93 69.6,87.63 297.63,134.16 186.21,727.22 -42.3,225.15 -136.84,330.45 -215.08,473zm3746.6 1434.66c445.78,-1096.05 700.88,-1312.01 -252.33,-1900.03l-201.57 -146.71c2213.45,178.53 1517.97,1662.44 453.9,2046.74zm-3424.14 -855.31c174.42,-726.26 547.92,-1564.98 1215.3,-1878.44 -61.93,448.54 -147.68,869.06 -317.9,1268.95 -233.59,548.6 -229.63,503.59 -897.4,609.49zm-5513.62 -3019.94c2556.92,-851.95 3723.09,1486.06 1577.89,2532.58 -1819.75,887.73 -4552.13,-1541.59 -1577.89,-2532.58zm-3450.45 1553.95c368.71,-340.33 818.17,-670.94 1037.12,-1045.96l571.95 -976.84c129.77,-158.71 110.58,-113.93 247.5,-232.02 9.95,1519.52 -487.56,1947.67 -1856.57,2254.82zm-7304.14 3369.41c141.47,1626.3 3247.12,2407.93 3471.83,178.54 14.31,-141.84 9.48,-279.68 29.51,-407.09l135.04 -465.69c1156.09,1709.45 -773.48,3571.18 -3182.33,2378.99 -706.67,-349.76 -606.57,-539.53 -1047.95,-1157.13l-8194.07 5182.41c2799.02,365.3 5579.42,-934.63 7894.12,-1738.08 1329.39,-461.46 2768.16,-475.49 4198.54,-746.25 1294.45,-245.02 2704.72,-720.39 3938.89,-1119.11 4168.23,-1346.67 8320.99,-933.31 12571.06,-2389.03l3410.11 -1648.13c-2473.77,-1938.12 -8870.72,-3848.45 -12662.41,-4542.57 -1248.32,-228.51 -1087.97,354.71 -2495.8,1496.93 -4207.53,3413.71 -6551.1,3478.52 -8066.54,4976.21z"/>
   <path class="fil2" d="M79168.62 157845.04l-474.49 325.01 620.48 597.89c14.16,-26.5 53.61,61.85 80.52,92.67 -902.4,-20.35 -1030.49,-25.67 -1291.3,-773.95 -1232.81,671.05 -5125.44,1182.99 -5209.31,1218.09 -1354.22,566.8 -4185.83,314.98 -5997.3,370.43l-337.61 -193.29 -102.98 1361.93c3798.49,658.14 5742.85,99.95 9393.42,-721.74 4251.63,-957.01 4699.37,68.44 8817.07,-2031.19l-72.23 -2280.68c-111.46,-819.05 15.51,-303.19 -235.51,-506.91 42.5,1506.93 -494.63,2627.77 -1608.19,3135.11 -691.6,315.1 -1342.51,377.98 -2119.9,234.31 -945.73,-174.82 -829.64,-317.54 -1462.67,-827.68z"/>
   <path class="fil3" d="M82205.55 153483.11c-39.26,108.9 -46.58,97.43 9.79,316.98 149.75,583.34 706.31,2301.11 -438.31,2760.41l176.3 -3090.7c-1872,447.78 -3608.2,4739.94 -794.82,4601.98 2717.39,-133.2 3189.32,-4083.32 1047.04,-4588.67z"/>
   <path class="fil0" d="M81953.33 153469.8l252.22 13.31c2142.28,505.35 1670.35,4455.47 -1047.04,4588.67 -2813.38,137.96 -1077.18,-4154.2 794.82,-4601.98zm-2784.71 4375.24c633.03,510.14 516.94,652.86 1462.67,827.68 777.39,143.67 1428.3,80.79 2119.9,-234.31 1113.56,-507.34 1650.69,-1628.18 1608.19,-3135.11 -539.13,-4415.89 -6501.49,-2271.33 -5190.76,2541.74z"/>
   <path class="fil0 str0" d="M83261.34 145171.27c2365.83,38.58 2695.2,5008.43 862.66,5158.46 -1001.46,81.99 -1808.52,-1252.44 -1902.9,-2250.46 -134.57,-1422.98 289.99,-2168.43 1040.24,-2908zm11.31 -523.14c-1409.95,515.86 -1827.91,2299.31 -1724.49,3739.4 107.42,1495.22 1122.84,2903.41 2832.53,2517.19 2637.44,-595.82 1816.99,-7326.77 -1108.04,-6256.59z"/>
   <path class="fil3" d="M84053.12 147670.11c-71.8,-656.3 -234.31,-747.09 -143.6,-1490.18 1134.91,12.71 1357.58,3079.82 122.61,3153.18 -92.91,-664.86 95.43,-982.88 20.99,-1663zm-791.78 -2498.84c-750.25,739.57 -1174.81,1485.02 -1040.24,2908 94.38,998.02 901.44,2332.45 1902.9,2250.46 1832.54,-150.03 1503.17,-5119.88 -862.66,-5158.46z"/>
   <path class="fil3" d="M74970.04 150729.62c-344.44,-679.01 68,-1954.55 406.21,-2339.29 176.57,720.91 8.51,1790.09 -406.21,2339.29zm-727.5 -2824.21c-2024.75,858.23 -1182.68,4629.77 836.4,3835.95 1842.85,-724.54 1251.36,-4720.92 -836.4,-3835.95z"/>
   <path class="fil0" d="M74242.54 147905.41c2087.76,-884.97 2679.25,3111.41 836.4,3835.95 -2019.08,793.82 -2861.15,-2977.72 -836.4,-3835.95zm126.77 -730.86c-2648.07,821.13 -2042.18,5926.06 1120.43,5262.45 1228.89,-257.9 1777.34,-1705.94 1530.52,-3097.14 -212.92,-1200.34 -1188.16,-2618.93 -2650.95,-2165.31z"/>
   <path class="fil0" d="M72639.59 153921.22c1410.02,-1020.33 1544.66,2117.46 438.7,2744.9 -699.19,396.69 -1118.15,-249.3 -1160.53,-960.73 -50.69,-850.71 218,-1419.62 721.83,-1784.17zm-1557.03 1941.12c278.72,2582.03 4175.59,1947.2 3610.64,-1110.12 -517.06,-2798.11 -3921.34,-1768.14 -3610.64,1110.12z"/>
   <path class="fil3" d="M89409.71 146583.37c467.65,-467.25 1778.49,-1058.7 2566.32,-693.2 -296.63,299.55 -1976.02,927.75 -2566.32,693.2zm-283.88 1474.99c304.51,-41.69 1150.5,-689.68 1936.8,-1076.18 826.89,-406.44 1314.25,-579.46 2195.54,-902.64 93.54,-2738.17 -5401.61,-1526.07 -4132.34,1978.82z"/>
   <path class="fil0" d="M84099.93 138524.58c52.41,-755.24 158.79,-1028.88 895.21,-1114.79 745.49,-87.03 1192.23,-12.43 1505.69,421.63 -519.54,552.65 -1372.29,876.22 -2400.9,693.16zm385.5 -1606.55c-2974.24,990.99 -241.86,3420.31 1577.89,2532.58 2145.2,-1046.52 979.03,-3384.53 -1577.89,-2532.58z"/>
   <path class="fil0" d="M90222.28 160919.42c-1559.46,-1041 -2673.38,-2551.73 -3382.41,-2896.85 43.66,1895.23 3595.37,4456.71 6598.63,4804.55l1211.42 -66.04c26.31,-9.56 80.84,-12.39 99.07,-58.61 18.11,-45.89 66.84,-38.14 94.58,-64.28 -831.8,-606.53 -2518.34,-314.9 -4621.29,-1718.77z"/>
   <path class="fil0" d="M106694.17 159965.09c-386.49,-329.85 -34.14,-125.29 -475.52,-304.62 203.68,2029.99 3710.58,4457.42 6556.17,4825.41 496.72,64.25 1068.27,99.23 1464.4,-153.75 -140.12,-126.81 -55.69,-81.23 -291.79,-198.84l-2250.58 -582.19c-2908.05,-974.16 -3437.74,-2250.5 -5002.68,-3586.01z"/>
   <path class="fil0" d="M66739.11 152667.22c-380.42,-1417.22 615.61,-2869.58 1390.92,-2106.98 432.67,425.55 204.68,1166.61 -102.66,1602.99 -350.2,497.24 -551.4,665.22 -1288.26,503.99zm309.54 -2780.71c-726.86,472.65 -1052.31,1214.58 -857.94,2300.75 185.05,1034.08 946.05,1569.25 2026.11,1016.09 1822.75,-933.54 682.48,-4520.23 -1168.17,-3316.84z"/>
   <path class="fil0" d="M103986.94 134616.46c2.4,-858.86 -563.64,-980.23 -994.55,-1498.85 74.44,-1206.63 1000.1,-1029.77 1161.25,-2512.32 105.54,-970.95 -215.27,-2335.85 -1114.16,-2392.37 -48.73,469.16 435.79,1128.06 422.6,1902.26 -22.87,1339.74 -1933.64,2273.73 -1002.94,3461.52 182.09,232.39 1140.7,893.6 1527.8,1039.76z"/>
   <path class="fil4" d="M114046.05 161856.24c747.37,-1590 -1507.97,-2684.45 -2021.75,-1227.01 -660.46,1873.36 1361.33,2632 2021.75,1227.01z"/>
   <path class="fil4" d="M105171.53 147952.18c-1249.68,988.75 70.32,3255.93 1282.9,2171.27 1220.06,-1091.41 -97.9,-3108.88 -1282.9,-2171.27z"/>
   <path class="fil4" d="M92494.41 159814.9c63.52,576.39 564.35,1268.15 1336.23,1099.24 492.15,-107.73 997.46,-912.51 936.7,-1520.32 -144.64,-1447.64 -2493.41,-1579.69 -2272.93,421.08z"/>
   <path class="fil4" d="M128157.79 160425.15c251.49,-538.41 257.37,-1848.1 -252.42,-2105.91 -769.15,-388.97 -1055.51,664.62 -1288.81,1014.58 -240.87,361.23 -1008.38,1221.77 -85.4,1677.07 488.24,240.82 1274.99,167.1 1626.63,-585.74z"/>
   <path class="fil3" d="M72639.59 153921.22c-503.83,364.55 -772.52,933.46 -721.83,1784.17 42.38,711.43 461.34,1357.42 1160.53,960.73 1105.96,-627.44 971.32,-3765.23 -438.7,-2744.9z"/>
   <path class="fil2" d="M96354.62 141127.72c684.76,55.85 185.93,-18.15 362.59,194.73 -323.05,595.22 -771.19,3165.57 -952.53,4214.13 838.32,-38.5 322.09,-1260.79 855.79,-2319.18 124.36,522.62 84.11,654.74 29.98,1181.35 -9.36,91.07 -49.33,405.57 -49.85,485.44l84.79 562.4c295.75,-420.4 264.37,-1129.23 658.22,-2187.14 380.66,-1022.37 287.87,-1532.99 295.91,-2665.66l-1284.9 533.93z"/>
   <path class="fil0" d="M127333.18 148118.05c32.78,-728.62 -227.11,-1245.32 73.52,-1884.03 209.4,-444.91 827.28,-935.66 979.91,-1130.91 494.8,-632.8 560.36,-2686.09 -698.87,-2981.32 336.6,1877.16 594.69,1856.17 -242.94,2748.01 -88.95,94.75 -198.93,242.34 -254.06,314.18 -586.18,764.48 -1102.48,2542.09 142.44,2934.07z"/>
   <path class="fil0" d="M117422.61 134932.18c711.19,-299.02 294.39,-751 1192.39,-1716.05 1143.22,-1228.57 1798.12,-2957.21 403.41,-2985.71 -54.85,671.81 307.54,664.49 -42.18,1374.72 -182.33,370.31 -2229.35,1983.02 -1553.62,3327.04z"/>
   <path class="fil4" d="M122199.62 153107.09c315.58,-599.57 -65.64,-1155.73 -421.03,-1478.15 -494.28,-448.38 -1037.12,-213.95 -1271.03,138.84 -929.5,1401.87 1253.44,2172.75 1692.06,1339.31z"/>
   <path class="fil4" d="M114537.73 141153.15c1171.16,-547.29 268.64,-2164.35 -760.41,-1968.75 -1222.37,232.43 -724.62,2380.87 760.41,1968.75z"/>
   <path class="fil3" d="M66739.11 152667.22c736.86,161.23 938.06,-6.75 1288.26,-503.99 307.34,-436.38 535.33,-1177.44 102.66,-1602.99 -775.31,-762.6 -1771.34,689.76 -1390.92,2106.98z"/>
   <path class="fil4" d="M101625.3 161515.96c-422.32,-300.95 -778.75,-578.51 -1366.89,-377.67 -210.08,1291.42 1640.85,1874.48 2112.66,1366.06 485.92,-523.66 -59.29,-538.73 -329.21,-702.56l-416.56 -285.83z"/>
   <path class="fil4" d="M118718.15 156916.77c286.16,-422.24 350.16,-1387.84 -536.61,-865.22 -374.82,220.91 -133.52,246.86 -655.5,308.14 -429.63,50.49 -352.44,-176.62 -763.08,99.58 -763.68,513.71 1188.64,1588.61 1955.19,457.5z"/>
   <path class="fil4" d="M121864.46 164129.45c-114.66,-956.01 128.36,-208.2 -387.1,-639.55 -433.91,-363.11 -1087.89,-810.41 -1645.05,-815.37 -671.29,1076.3 932.9,1978.74 2032.15,1454.92z"/>
   <path class="fil4" d="M97326.26 154839.05c-412.84,1254.4 2394.02,1307.73 2126.01,-463.65 -703.31,-277.8 -725.82,-13.55 -1074.78,345.28 -238.62,11.11 -460.85,-23.91 -567.39,-14.87 -47.97,4.07 -88.31,8.79 -130.84,14.59l-353 118.65z"/>
   <path class="fil1" d="M84032.13 149333.11c1234.97,-73.36 1012.3,-3140.47 -122.61,-3153.18 -90.71,743.09 71.8,833.88 143.6,1490.18 74.44,680.12 -113.9,998.14 -20.99,1663z"/>
   <path class="fil4" d="M110697.22 144168.37c-545.76,32.58 -1472.15,-281.6 -1237.64,452.78 123.05,385.21 1018.21,913.39 1693.14,315.89 469.29,-415.44 623,-713.26 443.42,-1159.49 -515.9,-136.32 -735.81,54.41 -898.92,390.82z"/>
   <path class="fil3" d="M84099.93 138524.58c1028.61,183.06 1881.36,-140.51 2400.9,-693.16 -313.46,-434.06 -760.2,-508.66 -1505.69,-421.63 -736.42,85.91 -842.8,359.55 -895.21,1114.79z"/>
   <path class="fil0" d="M91716.58 139204.99c20.1,12.2 1334.03,372.71 507.46,1463.76 -364.95,481.68 -932.02,642.19 -1417.78,1029.52 1972.86,-3.63 3141.31,-1886.83 1739.08,-2448.1 -820.73,-328.49 -819.01,-49.14 -828.76,-45.18z"/>
   <path class="fil4" d="M100559.79 144099.69c-95.46,1260.27 845.87,2307.99 1709.06,1316.52 -213.28,-525.66 -172.86,-53.73 -700.52,-790.23 -268.6,-374.94 -362.71,-704.91 -1008.54,-526.29z"/>
   <path class="fil4" d="M109382.66 157845.27c348.64,-400.96 -219.99,-489.79 -537.69,-884.96 -308.94,-384.3 -294.35,-662.34 -998.78,-613.65 -440.79,1187.11 998.9,2116.9 1536.47,1498.61z"/>
   <path class="fil4" d="M89366.53 155145.35c-184.97,-259.65 -623.4,-810.69 -918.91,-336.28 -387.25,621.64 397.81,1881.39 1637.46,1400.43 -91.19,-857.11 88.47,-176.02 -338.21,-614.17l-380.34 -449.98z"/>
   <path class="fil4" d="M122269.34 160741.56c1004.22,231.27 1450.69,-715.22 1458.16,-1610.67 -793.06,-185.61 -833.6,-76.51 -1181.84,470.25 -224.99,353.36 -336.36,570.87 -276.32,1140.42z"/>
   <path class="fil4" d="M120790.84 140615.94c-473.65,-868.98 -1160.29,-1609.11 -1877.92,-2085.4 -289.99,1229.93 596.1,1970.54 1877.92,2085.4z"/>
   <path class="fil4" d="M128022.22 152755.53c-448.9,-776.59 -1046.59,-1252.99 -1687.82,-1889.83 -48.89,37.62 -316.22,58.65 -185.77,734.06 44.17,228.63 266.44,516.7 384.61,642.99 402.49,430.15 795.06,654.9 1488.98,512.78z"/>
   <path class="fil4" d="M104038.83 159041.9l26.14 -1651.48 -470.17 5.23c-537.53,572.79 -711.43,805.18 -744.41,1742.8 659.34,-5.8 693.48,-75.92 1043.28,-313.62l145.16 217.07z"/>
   <path class="fil4" d="M119550.55 147060.42l1447.17 220.15c521.1,-1159.29 -869.22,-1722 -1337.51,-734.77 -167.98,354.15 -91.47,-121.77 -109.66,514.62z"/>
   <path class="fil1" d="M82205.55 153483.11l-252.22 -13.31 -176.3 3090.7c1144.62,-459.3 588.06,-2177.07 438.31,-2760.41 -56.37,-219.55 -49.05,-208.08 -9.79,-316.98z"/>
   <path class="fil0" d="M78103.83 158086.66c260.81,748.28 388.9,753.6 1291.3,773.95 -26.91,-30.82 -66.36,-119.17 -80.52,-92.67l-620.48 -597.89c-289.83,-819.89 -75.67,-1285.66 -217.67,-2131.13 -368.39,507.42 -479.25,1342.46 -372.63,2047.74z"/>
   <path class="fil0" d="M68616.95 146323.84c788.42,-239.02 2616.49,-885.29 3064.27,-1439.81 -762.04,-15.99 -1127.91,162.23 -1726.68,446.23 -726.31,344.52 -1117.28,379.1 -1337.59,993.58z"/>
   <path class="fil0" d="M81034.98 138471.98c1369.01,-307.15 1866.52,-735.3 1856.57,-2254.82 -136.92,118.09 -117.73,73.31 -247.5,232.02l-571.95 976.84c-218.95,375.02 -668.41,705.63 -1037.12,1045.96z"/>
   <path class="fil0" d="M93423.19 140793.28c1064.07,-384.3 1759.55,-1868.21 -453.9,-2046.74l201.57 146.71c953.21,588.02 698.11,803.98 252.33,1900.03z"/>
   <path class="fil1" d="M89409.71 146583.37c590.3,234.55 2269.69,-393.65 2566.32,-693.2 -787.83,-365.5 -2098.67,225.95 -2566.32,693.2z"/>
   <path class="fil0" d="M89999.05 139937.97c667.77,-105.9 663.81,-60.89 897.4,-609.49 170.22,-399.89 255.97,-820.41 317.9,-1268.95 -667.38,313.46 -1040.88,1152.18 -1215.3,1878.44z"/>
   <path class="fil1" d="M74970.04 150729.62c414.72,-549.2 582.78,-1618.38 406.21,-2339.29 -338.21,384.74 -750.65,1660.28 -406.21,2339.29z"/>
   <path class="fil0" d="M89676.59 139358.62c78.24,-142.55 172.78,-247.85 215.08,-473 111.42,-593.06 -116.61,-639.59 -186.21,-727.22 -31.7,93.66 -163.79,422.59 -187.14,534.93 -176.77,851.79 48.9,541.64 158.27,665.29z"/>
  </g>
 </g>
</svg>
